{"glyphs":{"0":{"ha":1339,"x_min":53,"x_max":1289,"o":"m 53 479 q 214 857 56 725 q 672 989 372 989 q 1132 857 975 989 q 1286 479 1289 725 q 1128 106 1286 236 q 668 -25 969 -25 q 210 106 368 -25 q 53 479 53 238 m 428 479 q 493 300 432 375 q 672 225 554 225 q 854 301 793 225 q 911 479 915 376 q 850 663 911 588 q 668 739 789 739 q 488 663 549 739 q 428 479 428 586 z "},"1":{"ha":925,"x_min":90,"x_max":749,"o":"m 385 0 l 385 549 l 90 549 l 90 790 l 149 790 q 351 830 282 793 q 456 964 421 867 l 749 964 l 749 0 l 385 0 z "},"2":{"ha":1339,"x_min":42,"x_max":1282,"o":"m 514 533 l 799 594 q 874 669 874 610 q 715 747 874 747 q 636 743 668 747 q 569 727 604 739 q 515 686 535 715 q 492 613 496 657 l 75 613 q 126 779 83 708 q 225 889 168 850 q 363 951 282 928 q 513 982 443 975 q 668 989 583 989 q 854 981 771 989 q 1020 952 938 974 q 1158 895 1103 931 q 1248 801 1214 860 q 1282 664 1282 742 q 1251 547 1282 599 q 1169 463 1221 494 q 1065 411 1117 431 q 954 381 1013 392 l 606 315 q 454 242 489 294 l 1261 242 l 1261 0 l 42 0 q 72 192 43 107 q 144 333 100 278 q 251 431 188 389 q 376 494 315 472 q 514 533 438 517 z "},"3":{"ha":1339,"x_min":53,"x_max":1286,"o":"m 471 389 l 471 614 l 740 614 q 846 679 846 614 q 810 735 846 715 q 671 756 774 756 q 545 747 575 756 q 496 706 515 738 l 88 706 q 171 874 96 810 q 368 963 246 938 q 674 989 490 989 q 1123 924 988 989 q 1258 714 1258 860 q 1247 635 1258 669 q 1197 568 1236 601 q 1090 519 1158 535 l 1090 517 q 1235 439 1183 496 q 1286 292 1286 382 q 700 -25 1286 -25 q 571 -23 625 -25 q 447 -13 517 -21 q 326 8 376 -6 q 224 48 276 22 q 138 110 171 74 q 81 200 104 146 q 53 322 57 254 l 453 322 q 506 243 460 268 q 674 217 554 217 q 834 242 794 217 q 874 311 874 268 q 837 372 874 356 q 722 389 800 389 l 471 389 z "},"4":{"ha":1339,"x_min":57,"x_max":1292,"o":"m 765 381 l 765 731 l 413 381 l 765 381 m 57 147 l 57 390 l 614 964 l 1113 964 l 1113 381 l 1292 381 l 1292 147 l 1113 147 l 1113 0 l 765 0 l 765 147 l 57 147 z "},"5":{"ha":1339,"x_min":60,"x_max":1279,"o":"m 110 415 l 213 964 l 1225 964 l 1225 731 l 456 731 l 436 632 q 715 665 567 665 q 1279 324 1279 665 q 1131 69 1279 163 q 674 -25 983 -25 q 213 59 354 -25 q 60 319 71 143 l 467 319 q 518 250 481 272 q 665 225 564 225 q 888 329 888 225 q 647 449 888 449 q 485 415 536 449 l 110 415 z "},"6":{"ha":1339,"x_min":68,"x_max":1271,"o":"m 1260 678 l 868 678 q 801 740 857 722 q 676 756 756 756 q 506 713 563 756 q 443 575 449 669 q 731 631 535 631 q 1271 318 1271 631 q 1135 67 1271 158 q 719 -25 999 -25 q 524 -17 607 -25 q 349 22 440 -8 q 201 105 258 53 q 106 250 143 157 q 68 472 68 343 q 101 688 68 596 q 188 837 133 781 q 322 928 242 893 q 488 976 403 963 q 678 989 572 989 q 1080 920 932 989 q 1260 678 1228 851 m 675 406 q 521 381 564 406 q 478 307 478 357 q 531 235 478 261 q 675 208 583 208 q 828 233 786 208 q 871 307 871 257 q 818 379 871 353 q 675 406 765 406 z "},"7":{"ha":1286,"x_min":40,"x_max":1246,"o":"m 40 714 l 40 964 l 1246 964 l 1246 664 q 843 315 972 471 q 685 0 714 160 l 182 0 q 222 163 193 92 q 324 317 251 233 q 516 492 397 400 q 829 711 635 583 l 829 714 l 40 714 z "},"8":{"ha":1339,"x_min":53,"x_max":1286,"o":"m 524 615 q 544 606 524 615 q 668 597 564 597 q 813 615 772 597 q 853 678 853 632 q 813 739 853 722 q 668 756 772 756 q 524 739 564 756 q 483 678 483 722 q 524 615 483 632 m 669 397 q 507 378 553 399 q 461 299 461 357 q 669 208 461 208 q 878 299 878 208 q 832 378 878 357 q 669 397 786 399 m 669 989 q 908 977 808 989 q 1090 936 1008 965 q 1212 853 1171 907 q 1253 718 1253 799 q 1207 585 1253 636 q 1081 519 1161 533 l 1081 517 q 1232 440 1178 504 q 1286 297 1286 376 q 1137 52 1286 129 q 668 -25 988 -25 q 201 52 350 -25 q 53 297 53 129 q 107 440 53 375 q 256 517 161 504 l 256 519 q 129 585 175 533 q 83 718 83 636 q 124 853 83 799 q 247 936 165 907 q 428 977 328 965 q 669 989 529 989 z "},"9":{"ha":1339,"x_min":68,"x_max":1271,"o":"m 79 286 l 471 286 q 538 224 482 242 q 663 208 583 208 q 833 251 776 208 q 896 389 890 294 q 781 347 853 363 q 608 333 701 333 q 68 646 68 333 q 204 897 68 806 q 619 989 340 989 q 815 981 732 989 q 990 942 899 972 q 1138 859 1081 911 q 1233 714 1196 807 q 1271 492 1271 621 q 1238 276 1271 368 q 1151 127 1206 183 q 1017 36 1097 71 q 851 -12 936 1 q 661 -25 767 -25 q 259 44 407 -25 q 79 286 111 113 m 664 558 q 818 583 775 558 q 861 657 861 607 q 808 729 861 703 q 664 756 756 756 q 510 731 553 756 q 468 657 468 707 q 521 585 468 611 q 664 558 574 558 z "},"ˈ":{"ha":694,"x_min":0,"x_max":694,"o":"m 0 0 l 0 972 l 694 972 l 694 0 l 0 0 m 347 549 l 583 903 l 111 903 l 347 549 m 389 486 l 625 132 l 625 840 l 389 486 m 111 69 l 583 69 l 347 424 l 111 69 m 69 840 l 69 132 l 306 486 l 69 840 z "}," ":{"ha":567,"x_min":0,"x_max":0,"o":""},"!":{"ha":567,"x_min":96,"x_max":471,"o":"m 135 382 l 96 992 l 471 992 l 429 382 l 135 382 m 101 0 l 101 311 l 465 311 l 465 0 l 101 0 z "},"\"":{"ha":1003,"x_min":211,"x_max":792,"o":"m 558 397 l 558 992 l 792 992 l 792 397 l 558 397 m 211 397 l 211 992 l 444 992 l 444 397 l 211 397 z "},"#":{"ha":833,"x_min":49,"x_max":785,"o":"m 461 415 l 479 549 l 372 549 l 354 415 l 461 415 m 121 0 l 156 249 l 49 249 l 49 415 l 179 415 l 197 549 l 89 549 l 89 715 l 221 715 l 256 964 l 431 964 l 396 715 l 503 715 l 538 964 l 713 964 l 678 715 l 785 715 l 785 549 l 654 549 l 636 415 l 744 415 l 744 249 l 613 249 l 578 0 l 403 0 l 438 249 l 331 249 l 296 0 l 121 0 z "},"$":{"ha":1339,"x_min":93,"x_max":1246,"o":"m 689 358 l 689 214 q 792 231 764 215 q 821 278 821 247 q 750 349 821 338 l 689 358 m 614 643 l 614 775 q 519 761 547 775 q 490 715 490 747 q 514 670 490 683 q 614 643 538 657 m 614 -153 l 614 -28 q 229 52 357 -21 q 93 292 101 125 l 501 292 q 533 235 506 253 q 614 214 561 218 l 614 369 l 353 411 q 167 503 228 431 q 107 676 107 575 q 235 917 107 844 q 614 992 363 989 l 614 1117 l 689 1117 l 689 992 q 877 974 794 989 q 1035 925 960 958 q 1155 830 1110 892 q 1208 681 1200 768 l 800 681 q 689 775 793 763 l 689 632 l 917 597 q 1171 501 1096 569 q 1246 304 1246 433 q 1213 159 1246 221 q 1128 63 1179 97 q 999 7 1076 28 q 850 -21 921 -14 q 689 -28 779 -28 l 689 -153 l 614 -153 z "},"%":{"ha":1518,"x_min":32,"x_max":1486,"o":"m 1164 358 q 1111 358 1164 358 q 1058 240 1058 358 q 1164 122 1058 122 q 1269 240 1269 122 q 1164 358 1269 358 m 344 -28 l 994 992 l 1172 992 l 522 -28 l 344 -28 m 354 842 q 301 842 354 842 q 249 724 249 842 q 354 606 249 606 q 460 724 460 606 q 354 842 460 842 m 926 40 q 884 73 926 40 q 842 240 842 107 q 926 441 842 374 q 1164 508 1010 508 q 1403 442 1319 508 q 1486 240 1486 375 q 1403 39 1486 106 q 1164 -28 1319 -28 q 926 40 1010 -28 m 116 523 q 74 557 116 523 q 32 724 32 590 q 116 924 32 857 q 354 992 200 992 q 593 925 510 992 q 676 724 676 858 q 593 522 676 589 q 354 456 510 456 q 116 523 200 456 z "},"&":{"ha":1442,"x_min":46,"x_max":1453,"o":"m 588 764 q 665 674 588 729 q 744 713 719 693 q 768 768 768 733 q 742 811 768 794 q 675 828 715 828 q 610 810 633 828 q 588 764 588 793 m 744 228 l 500 447 q 421 331 421 411 q 470 232 421 274 q 588 190 519 190 q 678 202 632 190 q 744 228 725 214 m 988 0 l 908 74 q 731 -3 846 28 q 493 -35 615 -35 q 171 53 296 -35 q 46 297 46 142 q 120 483 46 410 q 336 586 194 557 q 240 756 240 660 q 342 933 240 864 q 663 1003 444 1003 q 861 981 774 1003 q 1008 903 949 958 q 1068 765 1068 847 q 838 551 1068 601 l 1004 397 q 1204 586 1101 472 l 1371 440 q 1174 250 1285 335 l 1453 0 l 988 0 z "},"'":{"ha":567,"x_min":167,"x_max":400,"o":"m 167 397 l 167 992 l 400 992 l 400 397 l 167 397 z "},"(":{"ha":694,"x_min":101,"x_max":604,"o":"m 361 992 l 604 992 q 494 698 539 867 q 449 364 449 529 q 494 30 449 199 q 604 -264 539 -139 l 361 -264 q 174 10 246 -158 q 101 364 101 178 q 174 718 101 550 q 361 992 246 886 z "},")":{"ha":694,"x_min":90,"x_max":593,"o":"m 333 -264 l 90 -264 q 201 30 156 -139 q 246 364 246 199 q 201 698 246 529 q 90 992 156 867 l 333 992 q 521 718 449 886 q 593 364 593 550 q 521 10 593 178 q 333 -264 449 -158 z "},"*":{"ha":644,"x_min":-4,"x_max":649,"o":"m -4 689 l 50 867 l 235 790 l 226 992 l 418 992 l 410 790 l 594 867 l 649 689 l 464 633 l 588 479 l 433 364 l 322 528 l 211 364 l 57 479 l 181 633 l -4 689 z "},"+":{"ha":833,"x_min":65,"x_max":768,"o":"m 317 451 l 317 703 l 517 703 l 517 451 l 768 451 l 768 251 l 517 251 l 517 0 l 317 0 l 317 251 l 65 251 l 65 451 l 317 451 z "},",":{"ha":567,"x_min":101,"x_max":465,"o":"m 101 0 l 101 311 l 465 311 l 465 75 q 439 -68 465 -4 q 372 -170 413 -132 q 281 -235 332 -208 q 185 -272 229 -261 q 101 -283 142 -282 l 101 -158 q 265 0 257 -140 l 101 0 z "},"-":{"ha":668,"x_min":82,"x_max":586,"o":"m 82 288 l 82 529 l 586 529 l 586 288 l 82 288 z "},".":{"ha":567,"x_min":101,"x_max":465,"o":"m 101 0 l 101 311 l 465 311 l 465 0 l 101 0 z "},"/":{"ha":617,"x_min":-8,"x_max":625,"o":"m -8 -35 l 379 1026 l 625 1026 l 238 -35 l -8 -35 z "},":":{"ha":567,"x_min":101,"x_max":465,"o":"m 101 449 l 101 760 l 465 760 l 465 449 l 101 449 m 101 0 l 101 311 l 465 311 l 465 0 l 101 0 z "},";":{"ha":567,"x_min":101,"x_max":465,"o":"m 101 0 l 101 311 l 465 311 l 465 75 q 439 -68 465 -4 q 372 -170 413 -132 q 281 -235 332 -208 q 185 -272 229 -261 q 101 -283 142 -282 l 101 -158 q 265 0 257 -140 l 101 0 m 101 449 l 101 760 l 465 760 l 465 449 l 101 449 z "},"<":{"ha":833,"x_min":65,"x_max":768,"o":"m 65 246 l 65 457 l 768 722 l 768 531 l 289 351 l 768 172 l 768 -19 l 65 246 z "},"=":{"ha":833,"x_min":65,"x_max":768,"o":"m 65 407 l 65 607 l 768 607 l 768 407 l 65 407 m 65 96 l 65 296 l 768 296 l 768 96 l 65 96 z "},">":{"ha":833,"x_min":65,"x_max":768,"o":"m 65 -19 l 65 172 l 544 351 l 65 531 l 65 722 l 768 457 l 768 246 l 65 -19 z "},"?":{"ha":1183,"x_min":26,"x_max":1146,"o":"m 418 653 l 26 653 q 165 936 53 854 q 600 1026 290 1026 q 1146 736 1146 1026 q 1110 604 1146 657 q 967 511 1075 551 q 800 443 835 463 q 757 397 765 424 l 401 397 q 408 468 403 443 q 437 522 414 493 q 508 574 460 551 q 639 622 557 597 q 722 663 699 640 q 746 722 746 686 q 710 784 746 758 q 593 810 674 810 q 418 653 418 810 m 397 0 l 397 311 l 761 311 l 761 0 l 397 0 z "},"@":{"ha":1111,"x_min":25,"x_max":1086,"o":"m 431 464 q 459 379 431 413 q 535 346 488 346 q 638 390 597 346 q 678 496 678 433 q 648 579 678 547 q 569 611 618 611 q 472 566 513 611 q 431 464 431 521 m 722 682 l 739 751 l 875 751 l 813 413 q 822 333 790 333 q 913 389 872 333 q 953 550 953 444 q 847 804 951 715 q 575 893 743 893 q 290 782 397 893 q 183 494 182 671 q 299 206 183 313 q 601 99 415 99 q 872 181 760 99 l 1017 181 q 589 -35 857 -35 q 190 115 354 -35 q 25 494 25 265 q 188 873 25 719 q 581 1026 350 1026 q 824 975 710 1026 q 1013 823 939 924 q 1086 596 1086 722 q 1055 430 1086 504 q 978 312 1024 356 q 879 239 933 268 q 783 199 825 210 q 713 188 742 188 q 659 206 681 188 q 636 257 638 224 l 633 257 q 569 208 607 228 q 496 188 531 188 q 328 263 401 188 q 256 440 256 339 q 337 672 256 574 q 547 769 418 769 q 722 682 665 769 z "},"A":{"ha":1233,"x_min":-46,"x_max":1279,"o":"m 735 356 l 618 692 l 615 692 l 499 356 l 735 356 m -46 0 l 376 992 l 857 992 l 1279 0 l 863 0 l 821 114 l 413 114 l 371 0 l -46 0 z "},"B":{"ha":1389,"x_min":96,"x_max":1332,"o":"m 479 750 l 479 622 l 775 622 q 851 639 831 622 q 872 688 872 656 q 851 734 872 718 q 775 750 831 750 l 479 750 m 479 397 l 479 242 l 814 242 q 915 319 915 242 q 814 397 915 397 l 479 397 m 96 0 l 96 992 l 988 992 q 1281 744 1281 992 q 1249 626 1281 678 q 1163 551 1218 574 l 1163 549 q 1290 458 1249 526 q 1332 322 1332 390 q 1242 83 1332 167 q 944 0 1151 0 l 96 0 z "},"C":{"ha":1415,"x_min":43,"x_max":1372,"o":"m 931 386 l 1372 386 q 1206 78 1331 171 q 721 -35 1057 -35 q 608 -33 656 -35 q 484 -19 560 -31 q 353 12 408 -8 q 236 72 299 32 q 135 166 174 111 q 69 306 96 221 q 43 496 43 390 q 69 686 43 601 q 135 826 96 771 q 236 920 174 881 q 353 980 299 960 q 484 1011 408 1000 q 608 1024 560 1022 q 721 1026 656 1026 q 829 1024 781 1026 q 943 1011 878 1021 q 1060 984 1008 1001 q 1168 935 1113 967 q 1263 859 1224 903 q 1331 750 1301 815 q 1372 603 1361 685 l 931 603 q 871 724 919 672 q 721 776 822 776 q 460 496 460 776 q 524 283 460 351 q 701 215 588 215 q 851 256 794 215 q 931 386 907 297 z "},"D":{"ha":1415,"x_min":96,"x_max":1372,"o":"m 488 742 l 488 250 l 713 250 q 903 313 843 250 q 964 496 964 375 q 903 679 964 617 q 713 742 843 742 l 488 742 m 96 0 l 96 992 l 858 992 q 1246 877 1119 992 q 1372 496 1372 763 q 1245 119 1372 239 q 867 0 1118 0 l 96 0 z "},"E":{"ha":1183,"x_min":96,"x_max":1150,"o":"m 96 0 l 96 992 l 1150 992 l 1150 750 l 488 750 l 488 617 l 1103 617 l 1103 375 l 488 375 l 488 242 l 1150 242 l 1150 0 l 96 0 z "},"F":{"ha":1106,"x_min":96,"x_max":1100,"o":"m 96 0 l 96 992 l 1100 992 l 1100 750 l 488 750 l 488 599 l 1051 599 l 1051 357 l 488 357 l 488 0 l 96 0 z "},"G":{"ha":1442,"x_min":43,"x_max":1364,"o":"m 801 340 l 801 565 l 1358 565 l 1358 0 l 1190 0 l 1146 90 q 965 -6 1069 22 q 692 -35 861 -35 q 43 492 43 -35 q 82 713 43 617 q 183 868 121 810 q 333 963 246 926 q 507 1013 421 1000 q 690 1026 593 1026 q 1178 935 1015 1026 q 1364 651 1340 844 l 922 651 q 846 753 907 722 q 713 776 797 776 q 451 496 451 776 q 743 215 451 215 q 963 340 917 215 l 801 340 z "},"H":{"ha":1415,"x_min":96,"x_max":1319,"o":"m 928 0 l 928 396 l 488 396 l 488 0 l 96 0 l 96 992 l 488 992 l 488 646 l 928 646 l 928 992 l 1319 992 l 1319 0 l 928 0 z "},"I":{"ha":592,"x_min":100,"x_max":492,"o":"m 100 0 l 100 992 l 492 992 l 492 0 l 100 0 z "},"J":{"ha":1106,"x_min":8,"x_max":1029,"o":"m 638 361 l 638 992 l 1029 992 l 1029 390 q 1019 249 1029 308 q 978 133 1008 189 q 894 42 947 76 q 753 -14 842 7 q 542 -35 665 -35 q 297 -15 393 -35 q 133 56 200 6 q 38 194 67 107 q 8 415 8 281 l 400 415 q 418 258 400 296 q 518 207 443 207 q 609 244 581 207 q 638 361 638 281 z "},"K":{"ha":1363,"x_min":96,"x_max":1408,"o":"m 888 0 l 617 381 l 488 267 l 488 0 l 96 0 l 96 992 l 488 992 l 488 642 l 851 992 l 1371 992 l 928 608 l 1408 0 l 888 0 z "},"L":{"ha":1106,"x_min":96,"x_max":1094,"o":"m 96 0 l 96 992 l 488 992 l 488 267 l 1094 267 l 1094 0 l 96 0 z "},"M":{"ha":1622,"x_min":96,"x_max":1526,"o":"m 96 0 l 96 992 l 647 992 l 810 415 l 813 415 l 975 992 l 1526 992 l 1526 0 l 1171 0 l 1171 708 l 1168 708 l 960 0 l 663 0 l 454 708 l 451 708 l 451 0 l 96 0 z "},"N":{"ha":1415,"x_min":96,"x_max":1319,"o":"m 96 0 l 96 992 l 543 992 l 940 442 l 944 442 l 944 992 l 1319 992 l 1319 0 l 890 0 l 474 556 l 471 556 l 471 0 l 96 0 z "},"O":{"ha":1442,"x_min":43,"x_max":1399,"o":"m 69 306 q 56 348 69 306 q 43 496 43 390 q 69 686 43 601 q 135 826 96 771 q 236 920 174 881 q 353 980 299 960 q 484 1011 408 1000 q 608 1024 560 1022 q 721 1026 656 1026 q 834 1024 786 1026 q 958 1011 882 1022 q 1088 980 1033 1000 q 1206 920 1143 960 q 1307 826 1268 881 q 1372 686 1346 771 q 1399 496 1399 601 q 1372 306 1399 390 q 1307 166 1346 221 q 1206 72 1268 111 q 1088 12 1143 32 q 958 -19 1033 -8 q 834 -33 882 -31 q 721 -35 786 -35 q 608 -33 656 -35 q 484 -19 560 -31 q 353 12 408 -8 q 236 72 299 32 q 135 166 174 111 q 69 306 96 221 m 721 776 q 590 776 721 776 q 460 496 460 776 q 721 215 460 215 q 982 496 982 215 q 721 776 982 776 z "},"P":{"ha":1311,"x_min":96,"x_max":1285,"o":"m 96 0 l 96 992 l 904 992 q 1195 905 1106 992 q 1285 646 1285 818 q 1194 400 1285 492 q 907 308 1104 308 l 488 308 l 488 0 l 96 0 m 488 758 l 488 550 l 740 550 q 845 574 814 550 q 876 653 876 599 q 845 734 876 710 q 740 758 814 758 l 488 758 z "},"Q":{"ha":1442,"x_min":43,"x_max":1399,"o":"m 706 276 l 867 450 l 963 365 q 982 496 982 419 q 721 776 982 776 q 460 496 460 776 q 721 215 460 215 q 768 218 738 215 l 706 276 m 1235 -204 l 1017 -7 q 893 -26 972 -18 q 721 -35 817 -35 q 608 -33 656 -35 q 484 -19 560 -31 q 353 12 408 -8 q 236 72 299 32 q 135 166 174 111 q 69 306 96 221 q 43 496 43 390 q 69 686 43 601 q 135 826 96 771 q 236 920 174 881 q 353 980 299 960 q 484 1011 408 1000 q 608 1024 560 1022 q 721 1026 656 1026 q 834 1024 786 1026 q 958 1011 882 1022 q 1088 980 1033 1000 q 1206 920 1143 960 q 1307 826 1268 881 q 1372 686 1346 771 q 1399 496 1399 601 q 1253 108 1399 238 l 1399 -22 l 1235 -204 z "},"R":{"ha":1336,"x_min":96,"x_max":1315,"o":"m 96 0 l 96 992 l 921 992 q 1156 956 1082 992 q 1251 861 1213 928 q 1290 715 1290 794 q 1253 575 1290 638 q 1138 489 1217 513 l 1138 486 q 1214 434 1183 472 q 1250 333 1244 396 l 1267 117 q 1315 0 1272 51 l 888 0 q 883 13 885 6 q 878 30 881 19 q 876 49 876 40 q 874 76 875 58 q 872 105 872 93 q 869 143 871 117 q 867 188 868 169 q 840 276 864 246 q 765 306 817 306 l 488 306 l 488 0 l 96 0 m 488 742 l 488 556 l 765 556 q 874 649 874 556 q 844 722 874 701 q 760 742 814 742 l 488 742 z "},"S":{"ha":1336,"x_min":33,"x_max":1303,"o":"m 765 354 l 318 421 q 114 516 181 442 q 47 700 47 590 q 90 859 47 793 q 215 960 133 925 q 394 1011 296 996 q 621 1026 493 1026 q 1096 945 944 1026 q 1258 701 1247 864 l 803 701 q 743 781 803 757 q 621 801 696 801 q 464 731 464 801 q 515 679 464 686 l 983 610 q 1303 321 1303 563 q 1149 52 1303 139 q 665 -35 994 -35 q 483 -28 564 -35 q 314 -1 401 -22 q 168 55 226 19 q 72 152 110 90 q 33 299 33 214 l 506 299 q 547 228 507 250 q 681 207 590 207 q 836 288 836 207 q 765 354 836 343 z "},"T":{"ha":1106,"x_min":-6,"x_max":1111,"o":"m 357 0 l 357 742 l -6 742 l -6 992 l 1111 992 l 1111 742 l 749 742 l 749 0 l 357 0 z "},"U":{"ha":1336,"x_min":75,"x_max":1261,"o":"m 75 376 l 75 992 l 467 992 l 467 392 q 517 262 467 300 q 668 224 567 224 q 819 262 769 224 q 869 392 869 300 l 869 992 l 1261 992 l 1261 376 q 1121 56 1261 147 q 668 -35 981 -35 q 215 56 356 -35 q 75 376 75 147 z "},"V":{"ha":1183,"x_min":-58,"x_max":1242,"o":"m 386 0 l -58 992 l 372 992 l 590 356 l 593 356 l 811 992 l 1242 992 l 797 0 l 386 0 z "},"W":{"ha":1619,"x_min":-1,"x_max":1621,"o":"m 288 0 l -1 992 l 378 992 l 506 386 l 508 386 l 654 992 l 967 992 l 1111 386 l 1114 386 l 1242 992 l 1621 992 l 1331 0 l 946 0 l 811 550 l 808 550 l 672 0 l 288 0 z "},"X":{"ha":1233,"x_min":-50,"x_max":1283,"o":"m -50 0 l 396 518 l 8 992 l 468 992 l 617 775 l 765 992 l 1225 992 l 838 518 l 1283 0 l 800 0 l 617 256 l 433 0 l -50 0 z "},"Y":{"ha":1156,"x_min":-58,"x_max":1214,"o":"m 382 0 l 382 279 l -58 992 l 389 992 l 578 603 l 767 992 l 1214 992 l 774 279 l 774 0 l 382 0 z "},"Z":{"ha":1183,"x_min":31,"x_max":1153,"o":"m 31 0 l 31 210 l 625 742 l 71 742 l 71 992 l 1153 992 l 1153 775 l 572 250 l 1138 250 l 1138 0 l 31 0 z "},"[":{"ha":694,"x_min":74,"x_max":676,"o":"m 74 -264 l 74 992 l 676 992 l 676 742 l 421 742 l 421 -14 l 676 -14 l 676 -264 l 74 -264 z "},"\\":{"ha":617,"x_min":-8,"x_max":625,"o":"m 379 -35 l -8 1026 l 238 1026 l 625 -35 l 379 -35 z "},"]":{"ha":694,"x_min":18,"x_max":621,"o":"m 18 -264 l 18 -14 l 274 -14 l 274 742 l 18 742 l 18 992 l 621 992 l 621 -264 l 18 -264 z "},"^":{"ha":833,"x_min":60,"x_max":774,"o":"m 569 457 l 417 789 l 264 457 l 60 457 l 301 964 l 532 964 l 774 457 l 569 457 z "},"_":{"ha":694,"x_min":0,"x_max":694,"o":"m 0 -174 l 0 -104 l 694 -104 l 694 -174 l 0 -174 z "},"`":{"ha":386,"x_min":-143,"x_max":404,"o":"m 69 835 l -143 1035 l 278 1035 l 404 835 l 69 835 z "},"a":{"ha":1208,"x_min":31,"x_max":1160,"o":"m 436 529 l 89 529 q 239 738 119 682 q 633 790 354 790 q 1015 722 901 790 q 1128 485 1128 653 l 1128 118 q 1160 0 1128 47 l 804 0 q 792 75 794 33 q 411 -31 678 -31 q 128 28 225 -31 q 31 226 31 88 q 386 465 31 450 l 679 479 q 751 496 731 482 q 772 542 772 510 q 611 615 772 615 q 436 529 456 615 m 781 313 l 781 346 q 500 314 726 335 q 428 292 451 310 q 406 239 406 275 q 535 153 406 153 q 781 313 781 153 z "},"b":{"ha":1208,"x_min":83,"x_max":1167,"o":"m 83 0 l 83 1026 l 431 1026 l 431 674 l 433 674 q 735 781 522 781 q 897 756 821 781 q 1035 684 974 732 q 1131 557 1096 636 q 1167 375 1167 478 q 1131 193 1167 272 q 1035 66 1096 114 q 897 -6 974 18 q 735 -31 821 -31 q 422 81 518 -31 l 419 81 l 419 0 l 83 0 m 622 547 q 431 375 431 547 q 621 203 431 203 q 765 249 718 203 q 811 375 811 296 q 762 499 811 451 q 622 547 713 547 z "},"c":{"ha":1208,"x_min":42,"x_max":1169,"o":"m 1169 454 l 806 454 q 740 550 800 521 q 615 574 694 574 q 456 522 506 574 q 406 386 406 469 q 458 246 406 297 q 613 194 511 194 q 740 223 692 194 q 806 321 789 251 l 1169 321 q 1119 164 1160 231 q 1027 60 1079 97 q 899 3 975 24 q 759 -24 824 -18 q 611 -31 694 -31 q 42 382 42 -31 q 611 790 42 790 q 1004 714 867 790 q 1169 454 1142 638 z "},"d":{"ha":1208,"x_min":42,"x_max":1125,"o":"m 789 0 l 789 81 l 786 81 q 474 -31 690 -31 q 311 -6 388 -31 q 174 66 235 18 q 77 193 113 114 q 42 375 42 272 q 77 557 42 478 q 174 684 113 636 q 311 756 235 732 q 474 781 388 781 q 775 674 686 781 l 778 674 l 778 1026 l 1125 1026 l 1125 0 l 789 0 m 588 203 q 778 375 778 203 q 586 547 778 547 q 447 499 496 547 q 397 375 397 451 q 444 249 397 296 q 588 203 490 203 z "},"e":{"ha":1208,"x_min":42,"x_max":1163,"o":"m 397 474 l 811 474 q 750 571 806 535 q 606 607 694 607 q 462 576 513 607 q 397 474 411 544 m 788 228 l 1157 228 q 983 39 1117 106 q 615 -31 844 -31 q 190 72 338 -31 q 42 381 42 175 q 184 683 42 576 q 583 790 326 790 q 774 776 689 790 q 933 726 858 761 q 1057 636 1007 692 q 1135 495 1107 581 q 1161 299 1163 410 l 397 299 q 450 205 397 249 q 607 161 503 161 q 788 228 735 161 z "},"f":{"ha":721,"x_min":13,"x_max":708,"o":"m 174 0 l 174 543 l 13 543 l 13 760 l 174 760 l 174 840 q 243 990 174 946 q 481 1035 313 1035 q 708 1026 622 1035 l 708 843 l 604 843 q 539 828 557 843 q 521 782 521 814 l 521 760 l 708 760 l 708 543 l 521 543 l 521 0 l 174 0 z "},"g":{"ha":1233,"x_min":42,"x_max":1150,"o":"m 803 64 l 803 129 q 501 47 710 47 q 160 141 278 47 q 42 414 42 235 q 171 684 42 588 q 501 781 300 781 q 814 674 704 781 l 814 760 l 1150 760 l 1150 54 q 1019 -203 1150 -124 q 621 -283 888 -283 q 218 -222 340 -283 q 71 -17 96 -161 l 454 -17 q 497 -72 463 -56 q 613 -92 536 -92 q 760 -54 717 -92 q 803 64 803 -17 m 803 407 q 755 514 803 472 q 603 556 707 556 q 453 514 501 556 q 406 407 406 472 q 453 298 406 340 q 603 256 501 256 q 755 298 707 256 q 803 407 803 340 z "},"h":{"ha":1156,"x_min":83,"x_max":1072,"o":"m 83 0 l 83 1026 l 431 1026 l 431 665 l 433 665 q 543 745 464 710 q 736 781 622 781 q 981 708 889 781 q 1072 483 1072 635 l 1072 0 l 725 0 l 725 393 q 592 531 725 531 q 475 485 519 531 q 431 350 431 440 l 431 0 l 83 0 z "},"i":{"ha":514,"x_min":83,"x_max":431,"o":"m 83 0 l 83 760 l 431 760 l 431 0 l 83 0 m 83 835 l 83 1026 l 431 1026 l 431 835 l 83 835 z "},"j":{"ha":540,"x_min":-35,"x_max":457,"o":"m -35 -264 l -35 -22 l 29 -22 q 94 -8 79 -22 q 110 60 110 6 l 110 760 l 457 760 l 457 6 q 443 -119 457 -68 q 406 -199 429 -169 q 341 -246 382 -229 q 258 -267 300 -262 q 150 -272 215 -272 q -35 -264 28 -272 m 110 835 l 110 1026 l 457 1026 l 457 835 l 110 835 z "},"k":{"ha":1156,"x_min":83,"x_max":1189,"o":"m 83 0 l 83 1026 l 431 1026 l 431 514 l 693 760 l 1154 760 l 808 476 l 1189 0 l 719 0 l 539 256 l 431 167 l 431 0 l 83 0 z "},"l":{"ha":514,"x_min":83,"x_max":431,"o":"m 83 0 l 83 1026 l 431 1026 l 431 0 l 83 0 z "},"m":{"ha":1619,"x_min":83,"x_max":1536,"o":"m 83 0 l 83 760 l 419 760 l 419 656 l 422 656 q 706 781 518 781 q 867 749 811 781 q 957 654 924 717 q 1236 781 1043 781 q 1453 718 1371 781 q 1536 524 1536 656 l 1536 0 l 1189 0 l 1189 429 q 1166 508 1189 485 q 1096 531 1143 531 q 978 403 978 531 l 978 0 l 642 0 l 642 429 q 619 508 642 485 q 549 531 596 531 q 431 403 431 531 l 431 0 l 83 0 z "},"n":{"ha":1156,"x_min":83,"x_max":1072,"o":"m 83 0 l 83 760 l 419 760 l 419 665 l 422 665 q 538 744 454 708 q 736 781 622 781 q 981 708 889 781 q 1072 483 1072 635 l 1072 0 l 725 0 l 725 393 q 592 531 725 531 q 475 485 519 531 q 431 350 431 440 l 431 0 l 83 0 z "},"o":{"ha":1208,"x_min":42,"x_max":1167,"o":"m 406 381 q 604 194 406 194 q 755 241 707 194 q 803 381 803 288 q 604 565 803 565 q 406 381 406 565 m 177 69 q 109 119 177 69 q 42 381 42 169 q 177 691 42 592 q 604 790 313 790 q 1031 691 896 790 q 1167 381 1167 592 q 1031 69 1167 169 q 604 -31 896 -31 q 177 69 313 -31 z "},"p":{"ha":1208,"x_min":83,"x_max":1167,"o":"m 83 -272 l 83 760 l 419 760 l 419 669 l 422 669 q 735 781 518 781 q 897 756 821 781 q 1035 684 974 732 q 1131 557 1096 636 q 1167 375 1167 478 q 1131 193 1167 272 q 1035 66 1096 114 q 897 -6 974 18 q 735 -31 821 -31 q 433 76 522 -31 l 431 76 l 431 -272 l 83 -272 m 621 547 q 431 375 431 547 q 622 203 431 203 q 762 251 713 203 q 811 375 811 299 q 765 501 811 454 q 621 547 718 547 z "},"q":{"ha":1208,"x_min":42,"x_max":1125,"o":"m 778 -272 l 778 76 l 775 76 q 474 -31 686 -31 q 311 -6 388 -31 q 174 66 235 18 q 77 193 113 114 q 42 375 42 272 q 77 557 42 478 q 174 684 113 636 q 311 756 235 732 q 474 781 388 781 q 786 669 690 781 l 789 669 l 789 760 l 1125 760 l 1125 -272 l 778 -272 m 586 203 q 778 375 778 203 q 588 547 778 547 q 444 501 490 547 q 397 375 397 454 q 447 251 397 299 q 586 203 496 203 z "},"r":{"ha":875,"x_min":83,"x_max":860,"o":"m 83 0 l 83 760 l 419 760 l 419 614 l 422 614 q 746 781 550 781 q 860 772 803 781 l 860 461 q 686 489 749 489 q 612 483 646 489 q 543 464 578 478 q 485 428 508 450 q 446 369 461 406 q 431 285 431 332 l 431 0 l 83 0 z "},"s":{"ha":1132,"x_min":33,"x_max":1099,"o":"m 651 267 l 313 301 q 110 374 168 317 q 53 535 53 431 q 177 729 53 668 q 558 790 301 790 q 1061 532 1053 790 l 669 532 q 643 579 669 564 q 540 599 608 599 q 442 585 468 599 q 417 546 417 571 q 510 499 417 507 l 840 469 q 1038 399 976 457 q 1099 240 1099 342 q 970 33 1099 96 q 563 -31 842 -31 q 166 31 290 -31 q 33 236 42 93 l 442 236 q 485 175 447 193 q 583 161 515 161 q 699 219 699 161 q 651 267 699 261 z "},"t":{"ha":746,"x_min":13,"x_max":718,"o":"m 13 543 l 13 760 l 174 760 l 174 1004 l 521 1004 l 521 760 l 708 760 l 708 543 l 521 543 l 521 275 q 542 213 521 225 q 625 200 564 200 q 718 203 651 200 l 718 0 q 465 -17 596 -17 q 237 32 300 -17 q 174 231 174 81 l 174 543 l 13 543 z "},"u":{"ha":1156,"x_min":83,"x_max":1072,"o":"m 1072 760 l 1072 0 l 736 0 l 736 85 l 733 85 q 617 6 701 42 q 419 -31 533 -31 q 175 42 267 -31 q 83 267 83 115 l 83 760 l 431 760 l 431 357 q 564 219 431 219 q 685 267 644 219 q 725 401 725 314 l 725 760 l 1072 760 z "},"v":{"ha":1056,"x_min":-22,"x_max":1078,"o":"m 329 0 l -22 760 l 369 760 l 526 306 l 529 306 l 686 760 l 1078 760 l 726 0 l 329 0 z "},"w":{"ha":1619,"x_min":0,"x_max":1619,"o":"m 258 0 l 0 760 l 371 760 l 494 311 l 497 311 l 663 760 l 957 760 l 1108 311 l 1111 311 l 1249 760 l 1619 760 l 1361 0 l 957 0 l 810 397 l 663 0 l 258 0 z "},"x":{"ha":1156,"x_min":-14,"x_max":1169,"o":"m 428 0 l -14 0 l 336 397 l 15 760 l 440 760 l 578 556 l 715 760 l 1140 760 l 814 397 l 1169 0 l 728 0 l 578 215 l 428 0 z "},"y":{"ha":1003,"x_min":-31,"x_max":1033,"o":"m 88 -260 l 88 -35 q 174 -39 129 -39 q 258 -29 233 -39 q 303 19 283 -19 l 322 61 l -31 760 l 333 760 l 501 369 l 669 760 l 1033 760 l 607 -124 q 550 -212 578 -183 q 469 -256 522 -240 q 324 -272 415 -272 q 88 -260 231 -272 z "},"z":{"ha":978,"x_min":35,"x_max":943,"o":"m 35 0 l 35 192 l 464 524 l 464 526 l 60 526 l 60 760 l 931 760 l 931 560 l 524 244 l 524 242 l 943 242 l 943 0 l 35 0 z "},"{":{"ha":694,"x_min":-10,"x_max":633,"o":"m -10 247 l -10 481 q 92 508 56 481 q 129 611 129 535 l 129 796 q 183 940 129 888 q 328 992 238 992 l 633 992 l 633 758 l 557 758 q 476 672 476 758 l 476 533 q 442 412 476 451 q 326 365 408 372 l 326 363 q 442 316 408 356 q 476 194 476 276 l 476 56 q 557 -31 476 -31 l 633 -31 l 633 -264 l 328 -264 q 183 -212 238 -264 q 129 -68 129 -160 l 129 117 q 92 220 129 193 q -10 247 56 247 z "},"|":{"ha":386,"x_min":76,"x_max":310,"o":"m 76 -35 l 76 1026 l 310 1026 l 310 -35 l 76 -35 z "},"}":{"ha":694,"x_min":61,"x_max":704,"o":"m 704 481 l 704 247 q 602 220 639 247 q 565 117 565 193 l 565 -68 q 511 -212 565 -160 q 367 -264 457 -264 l 61 -264 l 61 -31 l 138 -31 q 218 56 218 -31 l 218 194 q 252 316 218 276 q 368 363 286 356 l 368 365 q 252 412 286 372 q 218 533 218 451 l 218 672 q 138 758 218 758 l 61 758 l 61 992 l 367 992 q 511 940 457 992 q 565 796 565 888 l 565 611 q 602 508 565 535 q 704 481 639 481 z "},"~":{"ha":833,"x_min":96,"x_max":738,"o":"m 146 201 l 96 376 q 269 499 157 499 q 424 454 324 499 q 565 404 526 404 q 630 429 603 404 q 688 501 657 454 l 738 324 q 692 265 710 286 q 639 224 674 244 q 564 204 604 204 q 422 250 506 204 q 263 299 336 299 q 146 201 193 299 z "}," ":{"ha":567,"x_min":0,"x_max":0,"o":""},"¡":{"ha":567,"x_min":96,"x_max":471,"o":"m 96 -232 l 138 378 l 432 378 l 471 -232 l 96 -232 m 101 449 l 101 760 l 465 760 l 465 449 l 101 449 z "},"¢":{"ha":1339,"x_min":83,"x_max":1214,"o":"m 613 197 l 613 574 q 447 388 447 558 q 613 197 447 207 m 613 -179 l 613 -28 q 83 383 83 -12 q 613 790 83 775 l 613 922 l 696 922 l 696 790 q 1053 708 928 785 q 1206 454 1179 631 l 842 454 q 800 539 839 513 q 696 574 761 565 l 696 197 q 850 319 824 208 l 1214 319 q 1168 171 1204 235 q 1084 71 1132 107 q 967 12 1036 35 q 836 -19 899 -11 q 696 -28 774 -26 l 696 -179 l 613 -179 z "},"£":{"ha":1339,"x_min":93,"x_max":1257,"o":"m 108 413 l 108 579 l 193 579 q 153 713 153 643 q 675 992 153 992 q 946 967 836 992 q 1114 894 1056 943 q 1196 787 1172 846 q 1219 646 1219 728 l 1219 617 l 811 617 q 783 715 811 688 q 685 742 757 742 q 569 663 569 742 q 585 579 569 638 l 779 579 l 779 413 l 586 413 q 464 253 569 335 l 467 250 q 619 292 528 292 q 764 278 644 292 q 921 264 883 264 q 1153 344 1049 264 l 1257 81 q 932 -28 1097 -28 q 658 3 832 -28 q 461 33 485 33 q 233 -28 324 33 l 93 207 q 185 292 156 250 q 215 394 215 335 l 215 413 l 108 413 z "},"¤":{"ha":833,"x_min":15,"x_max":818,"o":"m 293 615 q 267 589 293 615 q 242 482 242 564 q 293 349 242 400 q 417 299 344 299 q 540 349 489 299 q 592 482 592 400 q 540 615 592 564 q 417 665 489 665 q 293 615 344 665 m 15 206 l 97 288 q 42 482 42 375 q 101 682 42 592 l 15 767 l 135 881 l 218 799 q 417 857 307 857 q 615 799 525 857 l 699 881 l 818 767 l 733 682 q 792 482 792 592 q 736 288 792 375 l 818 206 l 707 83 l 621 168 q 417 107 529 107 q 213 168 301 107 l 126 83 l 15 206 z "},"¥":{"ha":1339,"x_min":61,"x_max":1278,"o":"m 474 0 l 474 117 l 222 117 l 222 283 l 474 283 l 474 371 l 222 371 l 222 538 l 361 538 l 61 964 l 494 964 l 669 547 l 844 964 l 1278 964 l 978 538 l 1117 538 l 1117 371 l 865 371 l 865 283 l 1117 283 l 1117 117 l 865 117 l 865 0 l 474 0 z "},"¦":{"ha":386,"x_min":76,"x_max":310,"o":"m 76 -35 l 76 381 l 310 381 l 310 -35 l 76 -35 m 76 611 l 76 1026 l 310 1026 l 310 611 l 76 611 z "},"§":{"ha":1339,"x_min":39,"x_max":1300,"o":"m 1193 721 l 818 721 q 765 794 818 774 q 632 810 725 810 q 526 797 554 810 q 497 760 497 785 q 533 719 497 726 l 947 644 q 1217 547 1133 610 q 1300 354 1300 483 q 1267 223 1300 272 q 1171 143 1233 174 q 1235 4 1235 89 q 1106 -209 1235 -135 q 685 -283 978 -283 q 106 29 157 -283 l 481 29 q 534 -52 489 -29 q 696 -75 579 -75 q 851 -17 851 -75 q 797 33 851 24 l 347 124 q 123 224 207 151 q 39 407 39 297 q 182 636 39 590 q 142 746 142 693 q 636 1026 142 1026 q 1193 721 1154 1026 m 907 386 l 389 499 q 361 436 361 468 q 376 394 361 410 q 428 371 390 379 l 967 258 q 988 315 988 292 q 971 358 988 340 q 907 386 954 375 z "},"¨":{"ha":386,"x_min":-197,"x_max":583,"o":"m -197 843 l -197 1026 l 139 1026 l 139 843 l -197 843 m 247 843 l 247 1026 l 583 1026 l 583 843 l 247 843 z "},"©":{"ha":1111,"x_min":25,"x_max":1086,"o":"m 669 413 l 822 413 q 739 249 808 306 q 568 193 669 193 q 354 276 433 193 q 275 490 275 360 q 352 706 275 624 q 565 789 429 789 q 735 734 669 789 q 817 574 801 679 l 669 574 q 557 656 654 656 q 465 613 497 656 q 433 493 433 569 q 468 374 433 421 q 560 326 503 326 q 669 413 664 326 m 302 766 q 251 715 302 766 q 200 496 200 664 q 302 226 200 328 q 556 124 404 124 q 809 226 707 124 q 911 496 911 328 q 809 766 911 664 q 556 868 707 868 q 302 766 404 868 m 181 121 q 103 199 181 121 q 25 496 25 276 q 181 871 25 715 q 556 1026 336 1026 q 931 871 775 1026 q 1086 496 1086 715 q 931 121 1086 276 q 556 -35 775 -35 q 181 121 336 -35 z "},"ª":{"ha":786,"x_min":-1,"x_max":788,"o":"m 296 825 l 38 825 q 69 912 47 881 q 135 961 92 943 q 418 992 210 992 q 675 956 586 992 q 764 819 764 919 l 764 588 q 788 506 764 553 l 521 506 q 513 543 514 540 q 272 489 446 489 q 66 526 133 489 q -1 649 -1 563 q 118 779 -1 753 q 205 792 156 788 q 340 800 254 796 q 446 806 425 804 q 501 826 501 810 q 404 867 501 867 q 296 825 310 867 m 506 694 l 506 714 q 340 694 468 707 q 279 651 279 690 q 300 626 279 638 q 354 614 321 614 q 461 633 417 614 q 506 694 506 651 z "},"«":{"ha":951,"x_min":122,"x_max":807,"o":"m 507 271 l 507 546 l 807 769 l 807 536 l 633 408 l 807 281 l 807 47 l 507 271 m 122 271 l 122 546 l 422 769 l 422 536 l 249 408 l 422 281 l 422 47 l 122 271 z "},"¬":{"ha":833,"x_min":65,"x_max":768,"o":"m 568 150 l 568 407 l 65 407 l 65 607 l 768 607 l 768 150 l 568 150 z "},"­":{"ha":668,"x_min":82,"x_max":586,"o":"m 82 288 l 82 529 l 586 529 l 586 288 l 82 288 z "},"®":{"ha":1111,"x_min":25,"x_max":1086,"o":"m 472 547 l 581 547 q 640 563 621 547 q 658 619 658 578 q 551 672 658 672 l 472 672 l 472 547 m 633 214 l 501 439 l 472 439 l 472 214 l 339 214 l 339 781 l 554 781 q 739 742 678 781 q 800 606 800 703 q 643 447 800 454 l 781 214 l 633 214 m 302 766 q 251 715 302 766 q 200 496 200 664 q 302 226 200 328 q 556 124 404 124 q 809 226 707 124 q 911 496 911 328 q 809 766 911 664 q 556 868 707 868 q 302 766 404 868 m 181 121 q 103 199 181 121 q 25 496 25 276 q 181 871 25 715 q 556 1026 336 1026 q 931 871 775 1026 q 1086 496 1086 715 q 931 121 1086 276 q 556 -35 775 -35 q 181 121 336 -35 z "},"¯":{"ha":386,"x_min":-203,"x_max":589,"o":"m -203 843 l -203 1026 l 589 1026 l 589 843 l -203 843 z "},"°":{"ha":556,"x_min":57,"x_max":499,"o":"m 210 839 q 196 825 210 839 q 182 771 182 811 q 210 703 182 731 q 278 675 239 675 q 345 703 317 675 q 374 771 374 731 q 345 839 374 811 q 278 867 317 867 q 210 839 239 867 m 122 615 q 89 647 122 615 q 57 771 57 679 q 122 927 57 863 q 278 992 186 992 q 434 927 369 992 q 499 771 499 863 q 434 615 499 679 q 278 550 369 550 q 122 615 186 550 z "},"±":{"ha":833,"x_min":65,"x_max":768,"o":"m 317 576 l 317 703 l 517 703 l 517 576 l 768 576 l 768 376 l 517 376 l 517 250 l 317 250 l 317 376 l 65 376 l 65 576 l 317 576 m 65 0 l 65 200 l 768 200 l 768 0 l 65 0 z "},"²":{"ha":871,"x_min":25,"x_max":846,"o":"m 332 717 l 539 760 q 565 792 565 764 q 463 833 565 833 q 395 829 421 833 q 345 804 369 825 q 317 743 321 783 l 25 743 q 58 854 31 807 q 123 927 85 901 q 217 968 161 953 q 321 988 272 983 q 432 992 369 992 q 591 983 522 992 q 720 955 660 975 q 813 894 781 935 q 846 796 846 854 q 782 681 846 722 q 633 625 718 639 l 406 586 q 293 558 332 572 l 293 556 l 817 556 l 817 397 l 25 397 q 52 535 26 476 q 125 630 78 594 q 220 685 172 665 q 332 717 268 704 z "},"³":{"ha":871,"x_min":18,"x_max":853,"o":"m 310 626 l 310 768 l 485 768 q 554 800 554 768 q 440 842 554 842 q 358 835 378 842 q 326 808 339 829 l 40 808 q 147 951 49 910 q 439 992 244 992 q 744 953 654 992 q 835 826 835 915 q 810 753 835 783 q 710 708 785 722 l 710 706 q 853 569 853 682 q 457 381 853 381 q 351 383 394 381 q 253 391 308 385 q 162 411 199 397 q 91 447 125 425 q 39 504 57 468 q 18 588 21 540 l 299 588 q 333 547 303 561 q 442 531 364 531 q 572 582 572 531 q 474 626 572 626 l 310 626 z "},"´":{"ha":386,"x_min":-18,"x_max":529,"o":"m -18 835 l 108 1035 l 529 1035 l 317 835 l -18 835 z "},"µ":{"ha":1156,"x_min":83,"x_max":1072,"o":"m 1072 760 l 1072 0 l 736 0 l 736 85 l 733 85 q 649 0 699 31 q 550 -31 599 -31 q 433 25 479 -31 l 431 25 l 431 -272 l 83 -272 l 83 760 l 431 760 l 431 357 q 564 219 431 219 q 685 267 644 219 q 725 401 725 314 l 725 760 l 1072 760 z "},"¶":{"ha":925,"x_min":-3,"x_max":886,"o":"m 321 -249 l 321 419 q 82 491 167 419 q -3 703 -3 563 q 24 849 -3 790 q 103 938 51 908 q 215 980 156 968 q 353 992 274 992 l 886 992 l 886 -249 l 669 -249 l 669 833 l 538 833 l 538 -249 l 321 -249 z "},"·":{"ha":567,"x_min":101,"x_max":465,"o":"m 155 210 q 128 237 155 210 q 101 339 101 264 q 155 467 101 414 q 283 521 208 521 q 412 467 358 521 q 465 339 465 414 q 412 210 465 264 q 283 157 358 157 q 155 210 208 157 z "},"¸":{"ha":386,"x_min":-19,"x_max":406,"o":"m -19 -272 l 3 -201 q 118 -217 67 -217 q 181 -176 181 -217 q 165 -158 181 -165 q 132 -150 150 -150 q 83 -161 113 -150 l 46 -132 l 126 -17 l 232 -17 l 196 -69 q 244 -67 224 -67 q 406 -176 406 -67 q 189 -300 406 -300 q -19 -272 125 -300 z "},"¹":{"ha":603,"x_min":58,"x_max":508,"o":"m 250 397 l 250 729 l 58 729 l 58 888 l 97 888 q 228 913 183 890 q 296 992 274 935 l 508 992 l 508 397 l 250 397 z "},"º":{"ha":786,"x_min":11,"x_max":775,"o":"m 278 746 q 308 674 278 700 q 393 647 338 647 q 478 674 449 647 q 508 746 508 700 q 478 809 508 785 q 393 833 449 833 q 308 809 338 833 q 278 746 278 785 m 11 746 q 101 933 11 874 q 393 992 192 992 q 685 933 594 992 q 775 746 775 874 q 685 550 775 611 q 393 489 596 489 q 101 550 190 489 q 11 746 11 611 z "},"»":{"ha":951,"x_min":144,"x_max":829,"o":"m 144 536 l 144 769 l 444 546 l 444 271 l 144 47 l 144 281 l 318 408 l 144 536 m 529 536 l 529 769 l 829 546 l 829 271 l 529 47 l 529 281 l 703 408 l 529 536 z "},"¼":{"ha":2006,"x_min":58,"x_max":1851,"o":"m 1026 97 l 1026 251 l 1388 594 l 1738 594 l 1738 250 l 1851 250 l 1851 97 l 1738 97 l 1738 0 l 1488 0 l 1488 97 l 1026 97 m 1488 250 l 1488 428 l 1293 250 l 1488 250 m 250 397 l 250 729 l 58 729 l 58 888 l 97 888 q 228 913 183 890 q 296 992 274 935 l 508 992 l 508 397 l 250 397 m 408 -28 l 1058 992 l 1236 992 l 586 -28 l 408 -28 z "},"½":{"ha":2006,"x_min":86,"x_max":1899,"o":"m 436 -28 l 1086 992 l 1264 992 l 614 -28 l 436 -28 m 278 397 l 278 729 l 86 729 l 86 888 l 125 888 q 256 913 211 890 q 324 992 301 935 l 536 992 l 536 397 l 278 397 m 1385 319 l 1569 357 q 1618 394 1618 367 q 1515 436 1618 436 q 1465 434 1485 436 q 1422 424 1444 432 q 1385 396 1399 415 q 1369 347 1372 376 l 1078 347 q 1110 458 1083 411 q 1176 530 1138 504 q 1269 571 1214 556 q 1374 590 1325 586 q 1485 594 1422 594 q 1644 586 1575 594 q 1773 558 1713 578 q 1866 497 1833 538 q 1899 399 1899 457 q 1835 283 1899 325 q 1686 228 1771 242 l 1458 189 q 1346 161 1385 175 l 1346 158 l 1869 158 l 1869 0 l 1078 0 q 1105 138 1079 79 q 1178 233 1131 197 q 1273 288 1225 268 q 1385 319 1321 307 z "},"¾":{"ha":2006,"x_min":44,"x_max":1961,"o":"m 615 -28 l 1265 992 l 1443 992 l 793 -28 l 615 -28 m 336 626 l 336 768 l 511 768 q 581 800 581 768 q 467 842 581 842 q 385 835 404 842 q 353 808 365 829 l 67 808 q 173 951 75 910 q 465 992 271 992 q 771 953 681 992 q 861 826 861 915 q 836 753 861 783 q 736 708 811 722 l 736 706 q 879 569 879 682 q 483 381 879 381 q 378 383 421 381 q 280 391 335 385 q 188 411 225 397 q 117 447 151 425 q 65 504 83 468 q 44 588 47 540 l 325 588 q 360 547 329 561 q 468 531 392 531 q 599 582 599 531 q 500 626 599 626 l 336 626 m 1597 250 l 1597 428 l 1403 250 l 1597 250 m 1136 97 l 1136 251 l 1497 594 l 1847 594 l 1847 250 l 1961 250 l 1961 97 l 1847 97 l 1847 0 l 1597 0 l 1597 97 l 1136 97 z "},"¿":{"ha":1183,"x_min":38,"x_max":1157,"o":"m 765 107 l 1157 107 q 1018 -176 1131 -94 q 583 -267 893 -267 q 38 24 38 -267 q 73 156 38 103 q 217 249 108 208 q 383 317 349 297 q 426 363 418 336 l 782 363 q 775 292 781 317 q 747 238 769 267 q 675 185 724 208 q 544 138 626 163 q 461 97 485 119 q 438 38 438 74 q 474 -24 438 1 q 590 -50 510 -50 q 765 107 765 -50 m 786 760 l 786 449 l 422 449 l 422 760 l 786 760 z "},"À":{"ha":1233,"x_min":-46,"x_max":1279,"o":"m 735 356 l 618 692 l 615 692 l 499 356 l 735 356 m -46 0 l 376 992 l 857 992 l 1279 0 l 863 0 l 821 114 l 413 114 l 371 0 l -46 0 m 493 1067 l 281 1267 l 701 1267 l 828 1067 l 493 1067 z "},"Á":{"ha":1233,"x_min":-46,"x_max":1279,"o":"m 735 356 l 618 692 l 615 692 l 499 356 l 735 356 m -46 0 l 376 992 l 857 992 l 1279 0 l 863 0 l 821 114 l 413 114 l 371 0 l -46 0 m 406 1067 l 532 1267 l 953 1267 l 740 1067 l 406 1067 z "},"Â":{"ha":1233,"x_min":-46,"x_max":1279,"o":"m 735 356 l 618 692 l 615 692 l 499 356 l 735 356 m -46 0 l 376 992 l 857 992 l 1279 0 l 863 0 l 821 114 l 413 114 l 371 0 l -46 0 m 153 1067 l 368 1267 l 865 1267 l 1081 1067 l 693 1067 l 599 1172 l 504 1067 l 153 1067 z "},"Ã":{"ha":1233,"x_min":-46,"x_max":1279,"o":"m 735 356 l 618 692 l 615 692 l 499 356 l 735 356 m -46 0 l 376 992 l 857 992 l 1279 0 l 863 0 l 821 114 l 413 114 l 371 0 l -46 0 m 875 1267 l 1022 1267 q 943 1103 999 1156 q 813 1050 888 1050 q 609 1083 775 1050 q 415 1117 443 1117 q 360 1076 381 1117 l 211 1076 q 438 1292 271 1292 q 635 1258 468 1292 q 815 1225 799 1225 q 875 1267 858 1225 z "},"Ä":{"ha":1233,"x_min":-46,"x_max":1279,"o":"m 735 356 l 618 692 l 615 692 l 499 356 l 735 356 m -46 0 l 376 992 l 857 992 l 1279 0 l 863 0 l 821 114 l 413 114 l 371 0 l -46 0 m 226 1075 l 226 1258 l 563 1258 l 563 1075 l 226 1075 m 671 1075 l 671 1258 l 1007 1258 l 1007 1075 l 671 1075 z "},"Å":{"ha":1233,"x_min":-46,"x_max":1279,"o":"m 735 356 l 618 692 l 615 692 l 499 356 l 735 356 m -46 0 l 376 992 l 857 992 l 1279 0 l 863 0 l 821 114 l 413 114 l 371 0 l -46 0 m 481 1077 q 453 1105 481 1077 q 425 1213 425 1133 q 481 1348 425 1292 q 617 1404 538 1404 q 752 1348 696 1404 q 808 1213 808 1292 q 752 1077 808 1133 q 617 1021 696 1021 q 481 1077 538 1021 m 558 1272 q 545 1259 558 1272 q 533 1213 533 1247 q 558 1153 533 1178 q 617 1129 582 1129 q 676 1153 651 1129 q 700 1213 700 1178 q 676 1272 700 1247 q 617 1296 651 1296 q 558 1272 582 1296 z "},"Æ":{"ha":1619,"x_min":-22,"x_max":1572,"o":"m -22 0 l 432 992 l 1565 992 l 1565 750 l 1082 750 l 1082 617 l 1546 617 l 1546 375 l 1082 375 l 1082 242 l 1572 242 l 1572 0 l 735 0 l 735 167 l 451 167 l 388 0 l -22 0 m 735 392 l 735 758 l 672 758 l 535 392 l 735 392 z "},"Ç":{"ha":1415,"x_min":43,"x_max":1372,"o":"m 931 386 l 1372 386 q 1206 78 1331 171 q 735 -33 1057 -33 l 711 -69 q 760 -67 739 -67 q 921 -176 921 -67 q 704 -300 921 -300 q 496 -272 640 -300 l 518 -201 q 633 -217 582 -217 q 696 -176 696 -217 q 681 -158 696 -165 q 647 -150 665 -150 q 599 -161 628 -150 l 561 -132 l 629 -33 q 520 -25 571 -31 q 408 -3 469 -19 q 296 36 346 13 q 197 101 246 60 q 116 194 149 142 q 63 324 83 247 q 43 496 43 401 q 69 686 43 601 q 135 826 96 771 q 236 920 174 881 q 353 980 299 960 q 484 1011 408 1000 q 608 1024 560 1022 q 721 1026 656 1026 q 829 1024 781 1026 q 943 1011 878 1021 q 1060 984 1008 1001 q 1168 935 1113 967 q 1263 859 1224 903 q 1331 750 1301 815 q 1372 603 1361 685 l 931 603 q 871 724 919 672 q 721 776 822 776 q 460 496 460 776 q 524 283 460 351 q 701 215 588 215 q 851 256 794 215 q 931 386 907 297 z "},"È":{"ha":1183,"x_min":96,"x_max":1150,"o":"m 96 0 l 96 992 l 1150 992 l 1150 750 l 488 750 l 488 617 l 1103 617 l 1103 375 l 488 375 l 488 242 l 1150 242 l 1150 0 l 96 0 m 496 1067 l 283 1267 l 704 1267 l 831 1067 l 496 1067 z "},"É":{"ha":1183,"x_min":96,"x_max":1150,"o":"m 96 0 l 96 992 l 1150 992 l 1150 750 l 488 750 l 488 617 l 1103 617 l 1103 375 l 488 375 l 488 242 l 1150 242 l 1150 0 l 96 0 m 408 1067 l 535 1267 l 956 1267 l 743 1067 l 408 1067 z "},"Ê":{"ha":1183,"x_min":96,"x_max":1150,"o":"m 96 0 l 96 992 l 1150 992 l 1150 750 l 488 750 l 488 617 l 1103 617 l 1103 375 l 488 375 l 488 242 l 1150 242 l 1150 0 l 96 0 m 156 1067 l 371 1267 l 868 1267 l 1083 1067 l 696 1067 l 601 1172 l 507 1067 l 156 1067 z "},"Ë":{"ha":1183,"x_min":96,"x_max":1150,"o":"m 96 0 l 96 992 l 1150 992 l 1150 750 l 488 750 l 488 617 l 1103 617 l 1103 375 l 488 375 l 488 242 l 1150 242 l 1150 0 l 96 0 m 229 1075 l 229 1258 l 565 1258 l 565 1075 l 229 1075 m 674 1075 l 674 1258 l 1010 1258 l 1010 1075 l 674 1075 z "},"Ì":{"ha":592,"x_min":-40,"x_max":507,"o":"m 100 0 l 100 992 l 492 992 l 492 0 l 100 0 m 172 1067 l -40 1267 l 381 1267 l 507 1067 l 172 1067 z "},"Í":{"ha":592,"x_min":85,"x_max":632,"o":"m 100 0 l 100 992 l 492 992 l 492 0 l 100 0 m 85 1067 l 211 1267 l 632 1267 l 419 1067 l 85 1067 z "},"Î":{"ha":592,"x_min":-168,"x_max":760,"o":"m 100 0 l 100 992 l 492 992 l 492 0 l 100 0 m -168 1067 l 47 1267 l 544 1267 l 760 1067 l 372 1067 l 278 1172 l 183 1067 l -168 1067 z "},"Ï":{"ha":592,"x_min":-94,"x_max":686,"o":"m 100 0 l 100 992 l 492 992 l 492 0 l 100 0 m -94 1075 l -94 1258 l 242 1258 l 242 1075 l -94 1075 m 350 1075 l 350 1258 l 686 1258 l 686 1075 l 350 1075 z "},"Ð":{"ha":1415,"x_min":0,"x_max":1372,"o":"m 96 0 l 96 422 l 0 422 l 0 597 l 96 597 l 96 992 l 867 992 q 1245 872 1118 992 q 1372 496 1372 753 q 1245 119 1372 239 q 867 0 1118 0 l 96 0 m 739 422 l 488 422 l 488 250 l 713 250 q 903 313 843 250 q 964 496 964 375 q 903 679 964 617 q 713 742 843 742 l 488 742 l 488 597 l 739 597 l 739 422 z "},"Ñ":{"ha":1415,"x_min":96,"x_max":1319,"o":"m 96 0 l 96 992 l 543 992 l 940 442 l 944 442 l 944 992 l 1319 992 l 1319 0 l 890 0 l 474 556 l 471 556 l 471 0 l 96 0 m 967 1267 l 1114 1267 q 1035 1103 1090 1156 q 904 1050 979 1050 q 701 1083 867 1050 q 507 1117 535 1117 q 451 1076 472 1117 l 303 1076 q 529 1292 363 1292 q 726 1258 560 1292 q 907 1225 890 1225 q 967 1267 950 1225 z "},"Ò":{"ha":1442,"x_min":43,"x_max":1399,"o":"m 69 306 q 56 348 69 306 q 43 496 43 390 q 69 686 43 601 q 135 826 96 771 q 236 920 174 881 q 353 980 299 960 q 484 1011 408 1000 q 608 1024 560 1022 q 721 1026 656 1026 q 834 1024 786 1026 q 958 1011 882 1022 q 1088 980 1033 1000 q 1206 920 1143 960 q 1307 826 1268 881 q 1372 686 1346 771 q 1399 496 1399 601 q 1372 306 1399 390 q 1307 166 1346 221 q 1206 72 1268 111 q 1088 12 1143 32 q 958 -19 1033 -8 q 834 -33 882 -31 q 721 -35 786 -35 q 608 -33 656 -35 q 484 -19 560 -31 q 353 12 408 -8 q 236 72 299 32 q 135 166 174 111 q 69 306 96 221 m 721 776 q 590 776 721 776 q 460 496 460 776 q 721 215 460 215 q 982 496 982 215 q 721 776 982 776 m 597 1067 l 385 1267 l 806 1267 l 932 1067 l 597 1067 z "},"Ó":{"ha":1442,"x_min":43,"x_max":1399,"o":"m 69 306 q 56 348 69 306 q 43 496 43 390 q 69 686 43 601 q 135 826 96 771 q 236 920 174 881 q 353 980 299 960 q 484 1011 408 1000 q 608 1024 560 1022 q 721 1026 656 1026 q 834 1024 786 1026 q 958 1011 882 1022 q 1088 980 1033 1000 q 1206 920 1143 960 q 1307 826 1268 881 q 1372 686 1346 771 q 1399 496 1399 601 q 1372 306 1399 390 q 1307 166 1346 221 q 1206 72 1268 111 q 1088 12 1143 32 q 958 -19 1033 -8 q 834 -33 882 -31 q 721 -35 786 -35 q 608 -33 656 -35 q 484 -19 560 -31 q 353 12 408 -8 q 236 72 299 32 q 135 166 174 111 q 69 306 96 221 m 721 776 q 590 776 721 776 q 460 496 460 776 q 721 215 460 215 q 982 496 982 215 q 721 776 982 776 m 510 1067 l 636 1267 l 1057 1267 l 844 1067 l 510 1067 z "},"Ô":{"ha":1442,"x_min":43,"x_max":1399,"o":"m 69 306 q 56 348 69 306 q 43 496 43 390 q 69 686 43 601 q 135 826 96 771 q 236 920 174 881 q 353 980 299 960 q 484 1011 408 1000 q 608 1024 560 1022 q 721 1026 656 1026 q 834 1024 786 1026 q 958 1011 882 1022 q 1088 980 1033 1000 q 1206 920 1143 960 q 1307 826 1268 881 q 1372 686 1346 771 q 1399 496 1399 601 q 1372 306 1399 390 q 1307 166 1346 221 q 1206 72 1268 111 q 1088 12 1143 32 q 958 -19 1033 -8 q 834 -33 882 -31 q 721 -35 786 -35 q 608 -33 656 -35 q 484 -19 560 -31 q 353 12 408 -8 q 236 72 299 32 q 135 166 174 111 q 69 306 96 221 m 721 776 q 590 776 721 776 q 460 496 460 776 q 721 215 460 215 q 982 496 982 215 q 721 776 982 776 m 257 1067 l 472 1267 l 969 1267 l 1185 1067 l 797 1067 l 703 1172 l 608 1067 l 257 1067 z "},"Õ":{"ha":1442,"x_min":43,"x_max":1399,"o":"m 69 306 q 56 348 69 306 q 43 496 43 390 q 69 686 43 601 q 135 826 96 771 q 236 920 174 881 q 353 980 299 960 q 484 1011 408 1000 q 608 1024 560 1022 q 721 1026 656 1026 q 834 1024 786 1026 q 958 1011 882 1022 q 1088 980 1033 1000 q 1206 920 1143 960 q 1307 826 1268 881 q 1372 686 1346 771 q 1399 496 1399 601 q 1372 306 1399 390 q 1307 166 1346 221 q 1206 72 1268 111 q 1088 12 1143 32 q 958 -19 1033 -8 q 834 -33 882 -31 q 721 -35 786 -35 q 608 -33 656 -35 q 484 -19 560 -31 q 353 12 408 -8 q 236 72 299 32 q 135 166 174 111 q 69 306 96 221 m 721 776 q 590 776 721 776 q 460 496 460 776 q 721 215 460 215 q 982 496 982 215 q 721 776 982 776 m 979 1267 l 1126 1267 q 1047 1103 1103 1156 q 917 1050 992 1050 q 713 1083 879 1050 q 519 1117 547 1117 q 464 1076 483 1117 l 315 1076 q 542 1292 375 1292 q 739 1258 572 1292 q 919 1225 903 1225 q 979 1267 963 1225 z "},"Ö":{"ha":1442,"x_min":43,"x_max":1399,"o":"m 69 306 q 56 348 69 306 q 43 496 43 390 q 69 686 43 601 q 135 826 96 771 q 236 920 174 881 q 353 980 299 960 q 484 1011 408 1000 q 608 1024 560 1022 q 721 1026 656 1026 q 834 1024 786 1026 q 958 1011 882 1022 q 1088 980 1033 1000 q 1206 920 1143 960 q 1307 826 1268 881 q 1372 686 1346 771 q 1399 496 1399 601 q 1372 306 1399 390 q 1307 166 1346 221 q 1206 72 1268 111 q 1088 12 1143 32 q 958 -19 1033 -8 q 834 -33 882 -31 q 721 -35 786 -35 q 608 -33 656 -35 q 484 -19 560 -31 q 353 12 408 -8 q 236 72 299 32 q 135 166 174 111 q 69 306 96 221 m 721 776 q 590 776 721 776 q 460 496 460 776 q 721 215 460 215 q 982 496 982 215 q 721 776 982 776 m 331 1075 l 331 1258 l 667 1258 l 667 1075 l 331 1075 m 775 1075 l 775 1258 l 1111 1258 l 1111 1075 l 775 1075 z "},"×":{"ha":833,"x_min":72,"x_max":761,"o":"m 276 351 l 72 554 l 213 696 l 417 494 l 619 696 l 761 554 l 558 351 l 761 149 l 619 7 l 417 208 l 213 7 l 72 149 l 276 351 z "},"Ø":{"ha":1442,"x_min":36,"x_max":1406,"o":"m 475 383 l 906 717 q 721 776 842 776 q 460 496 460 776 q 475 383 460 432 m 967 608 l 536 275 q 721 215 600 215 q 982 496 982 215 q 967 608 982 564 m 36 43 l 160 139 q 43 496 43 267 q 69 686 43 601 q 135 826 96 771 q 236 920 174 881 q 353 980 299 960 q 484 1011 408 1000 q 608 1024 560 1022 q 721 1026 656 1026 q 1186 933 1031 1026 l 1331 1046 l 1406 947 l 1283 853 q 1399 496 1399 721 q 1372 306 1399 390 q 1307 166 1346 221 q 1206 72 1268 111 q 1088 12 1143 32 q 958 -19 1033 -8 q 834 -33 882 -31 q 721 -35 786 -35 q 256 58 411 -35 l 110 -54 l 36 43 z "},"Ù":{"ha":1336,"x_min":75,"x_max":1261,"o":"m 75 376 l 75 992 l 467 992 l 467 392 q 517 262 467 300 q 668 224 567 224 q 819 262 769 224 q 869 392 869 300 l 869 992 l 1261 992 l 1261 376 q 1121 56 1261 147 q 668 -35 981 -35 q 215 56 356 -35 q 75 376 75 147 m 544 1067 l 332 1267 l 753 1267 l 879 1067 l 544 1067 z "},"Ú":{"ha":1336,"x_min":75,"x_max":1261,"o":"m 75 376 l 75 992 l 467 992 l 467 392 q 517 262 467 300 q 668 224 567 224 q 819 262 769 224 q 869 392 869 300 l 869 992 l 1261 992 l 1261 376 q 1121 56 1261 147 q 668 -35 981 -35 q 215 56 356 -35 q 75 376 75 147 m 457 1067 l 583 1267 l 1004 1267 l 792 1067 l 457 1067 z "},"Û":{"ha":1336,"x_min":75,"x_max":1261,"o":"m 75 376 l 75 992 l 467 992 l 467 392 q 517 262 467 300 q 668 224 567 224 q 819 262 769 224 q 869 392 869 300 l 869 992 l 1261 992 l 1261 376 q 1121 56 1261 147 q 668 -35 981 -35 q 215 56 356 -35 q 75 376 75 147 m 204 1067 l 419 1267 l 917 1267 l 1132 1067 l 744 1067 l 650 1172 l 556 1067 l 204 1067 z "},"Ü":{"ha":1336,"x_min":75,"x_max":1261,"o":"m 75 376 l 75 992 l 467 992 l 467 392 q 517 262 467 300 q 668 224 567 224 q 819 262 769 224 q 869 392 869 300 l 869 992 l 1261 992 l 1261 376 q 1121 56 1261 147 q 668 -35 981 -35 q 215 56 356 -35 q 75 376 75 147 m 278 1075 l 278 1258 l 614 1258 l 614 1075 l 278 1075 m 722 1075 l 722 1258 l 1058 1258 l 1058 1075 l 722 1075 z "},"Ý":{"ha":1156,"x_min":-58,"x_max":1214,"o":"m 382 0 l 382 279 l -58 992 l 389 992 l 578 603 l 767 992 l 1214 992 l 774 279 l 774 0 l 382 0 m 367 1067 l 493 1267 l 914 1267 l 701 1067 l 367 1067 z "},"Þ":{"ha":1311,"x_min":96,"x_max":1285,"o":"m 96 0 l 96 992 l 488 992 l 488 861 l 904 861 q 1195 774 1106 861 q 1285 515 1285 688 q 1194 269 1285 361 q 907 178 1104 178 l 488 178 l 488 0 l 96 0 m 488 628 l 488 419 l 740 419 q 845 444 814 419 q 876 522 876 468 q 845 603 876 579 q 740 628 814 628 l 488 628 z "},"ß":{"ha":1233,"x_min":83,"x_max":1192,"o":"m 431 0 l 83 0 l 83 669 q 220 947 83 867 q 647 1026 357 1026 q 1128 758 1128 1026 q 1092 636 1128 682 q 990 581 1056 590 l 990 578 q 1192 324 1192 539 q 1166 183 1192 244 q 1099 85 1140 122 q 999 24 1058 47 q 882 -8 940 1 q 756 -17 824 -17 q 497 17 604 -17 l 497 250 q 671 233 633 233 q 828 347 828 233 q 783 431 828 406 q 638 457 738 457 l 531 457 l 531 640 l 626 640 q 753 721 753 640 q 621 801 753 801 q 469 760 508 801 q 431 606 431 718 l 431 0 z "},"à":{"ha":1208,"x_min":31,"x_max":1160,"o":"m 436 529 l 89 529 q 239 738 119 682 q 633 790 354 790 q 1015 722 901 790 q 1128 485 1128 653 l 1128 118 q 1160 0 1128 47 l 804 0 q 792 75 794 33 q 411 -31 678 -31 q 128 28 225 -31 q 31 226 31 88 q 386 465 31 450 l 679 479 q 751 496 731 482 q 772 542 772 510 q 611 615 772 615 q 436 529 456 615 m 781 313 l 781 346 q 500 314 726 335 q 428 292 451 310 q 406 239 406 275 q 535 153 406 153 q 781 313 781 153 m 481 835 l 268 1035 l 689 1035 l 815 835 l 481 835 z "},"á":{"ha":1208,"x_min":31,"x_max":1160,"o":"m 436 529 l 89 529 q 239 738 119 682 q 633 790 354 790 q 1015 722 901 790 q 1128 485 1128 653 l 1128 118 q 1160 0 1128 47 l 804 0 q 792 75 794 33 q 411 -31 678 -31 q 128 28 225 -31 q 31 226 31 88 q 386 465 31 450 l 679 479 q 751 496 731 482 q 772 542 772 510 q 611 615 772 615 q 436 529 456 615 m 781 313 l 781 346 q 500 314 726 335 q 428 292 451 310 q 406 239 406 275 q 535 153 406 153 q 781 313 781 153 m 393 835 l 519 1035 l 940 1035 l 728 835 l 393 835 z "},"â":{"ha":1208,"x_min":31,"x_max":1160,"o":"m 436 529 l 89 529 q 239 738 119 682 q 633 790 354 790 q 1015 722 901 790 q 1128 485 1128 653 l 1128 118 q 1160 0 1128 47 l 804 0 q 792 75 794 33 q 411 -31 678 -31 q 128 28 225 -31 q 31 226 31 88 q 386 465 31 450 l 679 479 q 751 496 731 482 q 772 542 772 510 q 611 615 772 615 q 436 529 456 615 m 781 313 l 781 346 q 500 314 726 335 q 428 292 451 310 q 406 239 406 275 q 535 153 406 153 q 781 313 781 153 m 140 835 l 356 1035 l 853 1035 l 1068 835 l 681 835 l 586 940 l 492 835 l 140 835 z "},"ã":{"ha":1208,"x_min":31,"x_max":1160,"o":"m 436 529 l 89 529 q 239 738 119 682 q 633 790 354 790 q 1015 722 901 790 q 1128 485 1128 653 l 1128 118 q 1160 0 1128 47 l 804 0 q 792 75 794 33 q 411 -31 678 -31 q 128 28 225 -31 q 31 226 31 88 q 386 465 31 450 l 679 479 q 751 496 731 482 q 772 542 772 510 q 611 615 772 615 q 436 529 456 615 m 781 313 l 781 346 q 500 314 726 335 q 428 292 451 310 q 406 239 406 275 q 535 153 406 153 q 781 313 781 153 m 863 1035 l 1010 1035 q 931 871 986 924 q 800 818 875 818 q 597 851 763 818 q 403 885 431 885 q 347 844 367 885 l 199 844 q 425 1060 258 1060 q 622 1026 456 1060 q 803 993 786 993 q 863 1035 846 993 z "},"ä":{"ha":1208,"x_min":31,"x_max":1160,"o":"m 436 529 l 89 529 q 239 738 119 682 q 633 790 354 790 q 1015 722 901 790 q 1128 485 1128 653 l 1128 118 q 1160 0 1128 47 l 804 0 q 792 75 794 33 q 411 -31 678 -31 q 128 28 225 -31 q 31 226 31 88 q 386 465 31 450 l 679 479 q 751 496 731 482 q 772 542 772 510 q 611 615 772 615 q 436 529 456 615 m 781 313 l 781 346 q 500 314 726 335 q 428 292 451 310 q 406 239 406 275 q 535 153 406 153 q 781 313 781 153 m 214 843 l 214 1026 l 550 1026 l 550 843 l 214 843 m 658 843 l 658 1026 l 994 1026 l 994 843 l 658 843 z "},"å":{"ha":1208,"x_min":31,"x_max":1160,"o":"m 436 529 l 89 529 q 239 738 119 682 q 633 790 354 790 q 1015 722 901 790 q 1128 485 1128 653 l 1128 118 q 1160 0 1128 47 l 804 0 q 792 75 794 33 q 411 -31 678 -31 q 128 28 225 -31 q 31 226 31 88 q 386 465 31 450 l 679 479 q 751 496 731 482 q 772 542 772 510 q 611 615 772 615 q 436 529 456 615 m 781 313 l 781 346 q 500 314 726 335 q 428 292 451 310 q 406 239 406 275 q 535 153 406 153 q 781 313 781 153 m 469 887 q 441 915 469 887 q 413 1022 413 943 q 469 1158 413 1101 q 604 1214 525 1214 q 740 1158 683 1214 q 796 1022 796 1101 q 740 887 796 943 q 604 831 683 831 q 469 887 525 831 m 545 1081 q 533 1069 545 1081 q 521 1022 521 1057 q 545 963 521 988 q 604 939 569 939 q 663 963 639 939 q 688 1022 688 988 q 663 1081 688 1057 q 604 1106 639 1106 q 545 1081 569 1106 z "},"æ":{"ha":1619,"x_min":31,"x_max":1578,"o":"m 683 313 l 683 340 q 596 318 647 322 l 442 306 q 367 239 367 299 q 501 157 367 157 q 629 195 575 157 q 683 313 683 233 m 1246 228 l 1575 228 q 1129 -31 1489 -31 q 819 72 921 -31 q 665 -2 772 26 q 446 -31 558 -31 q 131 28 231 -31 q 31 228 31 86 q 308 450 31 431 l 581 469 q 654 485 632 472 q 676 533 676 499 q 638 586 676 574 q 538 599 600 599 q 469 592 496 599 q 429 571 442 585 q 413 547 417 557 q 407 522 410 538 l 79 522 q 249 744 96 681 q 543 790 357 790 q 840 718 756 790 q 1110 790 953 790 q 1453 681 1328 790 q 1578 350 1578 571 l 1578 301 l 950 301 q 1113 161 964 161 q 1197 176 1171 161 q 1246 228 1224 190 m 950 460 l 1265 460 q 1215 560 1260 521 q 1108 599 1169 599 q 1001 560 1046 599 q 950 460 956 521 z "},"ç":{"ha":1208,"x_min":42,"x_max":1169,"o":"m 806 321 l 1169 321 q 1122 168 1160 233 q 1034 66 1085 103 q 912 7 983 29 q 776 -22 840 -15 q 633 -31 713 -29 l 607 -69 q 656 -67 635 -67 q 817 -176 817 -67 q 600 -300 817 -300 q 392 -272 536 -300 l 414 -201 q 529 -217 478 -217 q 592 -176 592 -217 q 576 -158 592 -165 q 543 -150 561 -150 q 494 -161 524 -150 l 457 -132 l 531 -28 q 42 382 42 -1 q 611 790 42 790 q 1004 714 867 790 q 1169 454 1142 638 l 806 454 q 740 550 800 521 q 615 574 694 574 q 456 522 506 574 q 406 386 406 469 q 458 246 406 297 q 613 194 511 194 q 740 223 692 194 q 806 321 789 251 z "},"è":{"ha":1208,"x_min":42,"x_max":1163,"o":"m 397 474 l 811 474 q 750 571 806 535 q 606 607 694 607 q 462 576 513 607 q 397 474 411 544 m 788 228 l 1157 228 q 983 39 1117 106 q 615 -31 844 -31 q 190 72 338 -31 q 42 381 42 175 q 184 683 42 576 q 583 790 326 790 q 774 776 689 790 q 933 726 858 761 q 1057 636 1007 692 q 1135 495 1107 581 q 1161 299 1163 410 l 397 299 q 450 205 397 249 q 607 161 503 161 q 788 228 735 161 m 481 835 l 268 1035 l 689 1035 l 815 835 l 481 835 z "},"é":{"ha":1208,"x_min":42,"x_max":1163,"o":"m 397 474 l 811 474 q 750 571 806 535 q 606 607 694 607 q 462 576 513 607 q 397 474 411 544 m 788 228 l 1157 228 q 983 39 1117 106 q 615 -31 844 -31 q 190 72 338 -31 q 42 381 42 175 q 184 683 42 576 q 583 790 326 790 q 774 776 689 790 q 933 726 858 761 q 1057 636 1007 692 q 1135 495 1107 581 q 1161 299 1163 410 l 397 299 q 450 205 397 249 q 607 161 503 161 q 788 228 735 161 m 393 835 l 519 1035 l 940 1035 l 728 835 l 393 835 z "},"ê":{"ha":1208,"x_min":42,"x_max":1163,"o":"m 397 474 l 811 474 q 750 571 806 535 q 606 607 694 607 q 462 576 513 607 q 397 474 411 544 m 788 228 l 1157 228 q 983 39 1117 106 q 615 -31 844 -31 q 190 72 338 -31 q 42 381 42 175 q 184 683 42 576 q 583 790 326 790 q 774 776 689 790 q 933 726 858 761 q 1057 636 1007 692 q 1135 495 1107 581 q 1161 299 1163 410 l 397 299 q 450 205 397 249 q 607 161 503 161 q 788 228 735 161 m 140 835 l 356 1035 l 853 1035 l 1068 835 l 681 835 l 586 940 l 492 835 l 140 835 z "},"ë":{"ha":1208,"x_min":42,"x_max":1163,"o":"m 397 474 l 811 474 q 750 571 806 535 q 606 607 694 607 q 462 576 513 607 q 397 474 411 544 m 788 228 l 1157 228 q 983 39 1117 106 q 615 -31 844 -31 q 190 72 338 -31 q 42 381 42 175 q 184 683 42 576 q 583 790 326 790 q 774 776 689 790 q 933 726 858 761 q 1057 636 1007 692 q 1135 495 1107 581 q 1161 299 1163 410 l 397 299 q 450 205 397 249 q 607 161 503 161 q 788 228 735 161 m 214 843 l 214 1026 l 550 1026 l 550 843 l 214 843 m 658 843 l 658 1026 l 994 1026 l 994 843 l 658 843 z "},"ì":{"ha":514,"x_min":-79,"x_max":468,"o":"m 83 0 l 83 760 l 431 760 l 431 0 l 83 0 m 133 835 l -79 1035 l 342 1035 l 468 835 l 133 835 z "},"í":{"ha":514,"x_min":46,"x_max":593,"o":"m 83 0 l 83 760 l 431 760 l 431 0 l 83 0 m 46 835 l 172 1035 l 593 1035 l 381 835 l 46 835 z "},"î":{"ha":514,"x_min":-207,"x_max":721,"o":"m 83 0 l 83 760 l 431 760 l 431 0 l 83 0 m -207 835 l 8 1035 l 506 1035 l 721 835 l 333 835 l 239 940 l 144 835 l -207 835 z "},"ï":{"ha":514,"x_min":-133,"x_max":647,"o":"m 83 0 l 83 760 l 431 760 l 431 0 l 83 0 m -133 843 l -133 1026 l 203 1026 l 203 843 l -133 843 m 311 843 l 311 1026 l 647 1026 l 647 843 l 311 843 z "},"ð":{"ha":1208,"x_min":42,"x_max":1167,"o":"m 406 329 q 456 235 406 275 q 604 194 507 194 q 753 235 703 194 q 803 329 803 275 q 752 422 803 382 q 604 463 701 463 q 456 422 507 463 q 406 329 406 382 m 225 803 l 368 868 q 213 907 304 888 l 386 1086 q 679 1008 540 1064 l 858 1089 l 981 1017 l 818 943 q 1074 712 981 851 q 1167 392 1167 572 q 1033 70 1167 171 q 604 -31 899 -31 q 178 60 315 -31 q 42 329 42 150 q 165 598 42 508 q 511 688 288 688 q 764 619 675 688 l 767 622 q 524 810 685 738 l 318 717 l 225 803 z "},"ñ":{"ha":1156,"x_min":83,"x_max":1072,"o":"m 83 0 l 83 760 l 419 760 l 419 665 l 422 665 q 538 744 454 708 q 736 781 622 781 q 981 708 889 781 q 1072 483 1072 635 l 1072 0 l 725 0 l 725 393 q 592 531 725 531 q 475 485 519 531 q 431 350 431 440 l 431 0 l 83 0 m 836 1035 l 983 1035 q 904 871 960 924 q 774 818 849 818 q 570 851 736 818 q 376 885 404 885 q 321 844 342 885 l 172 844 q 399 1060 232 1060 q 596 1026 429 1060 q 776 993 760 993 q 836 1035 819 993 z "},"ò":{"ha":1208,"x_min":42,"x_max":1167,"o":"m 406 381 q 604 194 406 194 q 755 241 707 194 q 803 381 803 288 q 604 565 803 565 q 406 381 406 565 m 177 69 q 109 119 177 69 q 42 381 42 169 q 177 691 42 592 q 604 790 313 790 q 1031 691 896 790 q 1167 381 1167 592 q 1031 69 1167 169 q 604 -31 896 -31 q 177 69 313 -31 m 481 835 l 268 1035 l 689 1035 l 815 835 l 481 835 z "},"ó":{"ha":1208,"x_min":42,"x_max":1167,"o":"m 406 381 q 604 194 406 194 q 755 241 707 194 q 803 381 803 288 q 604 565 803 565 q 406 381 406 565 m 177 69 q 109 119 177 69 q 42 381 42 169 q 177 691 42 592 q 604 790 313 790 q 1031 691 896 790 q 1167 381 1167 592 q 1031 69 1167 169 q 604 -31 896 -31 q 177 69 313 -31 m 393 835 l 519 1035 l 940 1035 l 728 835 l 393 835 z "},"ô":{"ha":1208,"x_min":42,"x_max":1167,"o":"m 406 381 q 604 194 406 194 q 755 241 707 194 q 803 381 803 288 q 604 565 803 565 q 406 381 406 565 m 177 69 q 109 119 177 69 q 42 381 42 169 q 177 691 42 592 q 604 790 313 790 q 1031 691 896 790 q 1167 381 1167 592 q 1031 69 1167 169 q 604 -31 896 -31 q 177 69 313 -31 m 140 835 l 356 1035 l 853 1035 l 1068 835 l 681 835 l 586 940 l 492 835 l 140 835 z "},"õ":{"ha":1208,"x_min":42,"x_max":1167,"o":"m 406 381 q 604 194 406 194 q 755 241 707 194 q 803 381 803 288 q 604 565 803 565 q 406 381 406 565 m 177 69 q 109 119 177 69 q 42 381 42 169 q 177 691 42 592 q 604 790 313 790 q 1031 691 896 790 q 1167 381 1167 592 q 1031 69 1167 169 q 604 -31 896 -31 q 177 69 313 -31 m 863 1035 l 1010 1035 q 931 871 986 924 q 800 818 875 818 q 597 851 763 818 q 403 885 431 885 q 347 844 367 885 l 199 844 q 425 1060 258 1060 q 622 1026 456 1060 q 803 993 786 993 q 863 1035 846 993 z "},"ö":{"ha":1208,"x_min":42,"x_max":1167,"o":"m 406 381 q 604 194 406 194 q 755 241 707 194 q 803 381 803 288 q 604 565 803 565 q 406 381 406 565 m 177 69 q 109 119 177 69 q 42 381 42 169 q 177 691 42 592 q 604 790 313 790 q 1031 691 896 790 q 1167 381 1167 592 q 1031 69 1167 169 q 604 -31 896 -31 q 177 69 313 -31 m 214 843 l 214 1026 l 550 1026 l 550 843 l 214 843 m 658 843 l 658 1026 l 994 1026 l 994 843 l 658 843 z "},"÷":{"ha":833,"x_min":65,"x_max":768,"o":"m 65 251 l 65 451 l 768 451 l 768 251 l 65 251 m 313 549 q 292 570 313 549 q 271 651 271 592 q 313 754 271 711 q 417 797 356 797 q 520 754 478 797 q 563 651 563 711 q 520 549 563 592 q 417 506 478 506 q 313 549 356 506 m 313 -51 q 292 -30 313 -51 q 271 51 271 -8 q 313 154 271 111 q 417 197 356 197 q 520 154 478 197 q 563 51 563 111 q 520 -51 563 -8 q 417 -94 478 -94 q 313 -51 356 -94 z "},"ø":{"ha":1208,"x_min":26,"x_max":1182,"o":"m 417 307 l 732 536 q 604 565 685 565 q 406 381 406 565 q 417 307 406 336 m 793 454 l 476 225 q 604 194 519 194 q 755 241 707 194 q 803 381 803 288 q 793 454 803 425 m 26 22 l 138 104 q 42 381 42 201 q 177 691 42 592 q 604 790 313 790 q 983 719 850 790 l 1119 819 l 1182 736 l 1071 656 q 1167 381 1167 558 q 1031 69 1167 169 q 604 -31 896 -31 q 224 42 358 -31 l 85 -60 l 26 22 z "},"ù":{"ha":1156,"x_min":83,"x_max":1072,"o":"m 1072 760 l 1072 0 l 736 0 l 736 85 l 733 85 q 617 6 701 42 q 419 -31 533 -31 q 175 42 267 -31 q 83 267 83 115 l 83 760 l 431 760 l 431 357 q 564 219 431 219 q 685 267 644 219 q 725 401 725 314 l 725 760 l 1072 760 m 454 835 l 242 1035 l 663 1035 l 789 835 l 454 835 z "},"ú":{"ha":1156,"x_min":83,"x_max":1072,"o":"m 1072 760 l 1072 0 l 736 0 l 736 85 l 733 85 q 617 6 701 42 q 419 -31 533 -31 q 175 42 267 -31 q 83 267 83 115 l 83 760 l 431 760 l 431 357 q 564 219 431 219 q 685 267 644 219 q 725 401 725 314 l 725 760 l 1072 760 m 367 835 l 493 1035 l 914 1035 l 701 835 l 367 835 z "},"û":{"ha":1156,"x_min":83,"x_max":1072,"o":"m 1072 760 l 1072 0 l 736 0 l 736 85 l 733 85 q 617 6 701 42 q 419 -31 533 -31 q 175 42 267 -31 q 83 267 83 115 l 83 760 l 431 760 l 431 357 q 564 219 431 219 q 685 267 644 219 q 725 401 725 314 l 725 760 l 1072 760 m 114 835 l 329 1035 l 826 1035 l 1042 835 l 654 835 l 560 940 l 465 835 l 114 835 z "},"ü":{"ha":1156,"x_min":83,"x_max":1072,"o":"m 1072 760 l 1072 0 l 736 0 l 736 85 l 733 85 q 617 6 701 42 q 419 -31 533 -31 q 175 42 267 -31 q 83 267 83 115 l 83 760 l 431 760 l 431 357 q 564 219 431 219 q 685 267 644 219 q 725 401 725 314 l 725 760 l 1072 760 m 188 843 l 188 1026 l 524 1026 l 524 843 l 188 843 m 632 843 l 632 1026 l 968 1026 l 968 843 l 632 843 z "},"ý":{"ha":1003,"x_min":-31,"x_max":1033,"o":"m 88 -260 l 88 -35 q 174 -39 129 -39 q 258 -29 233 -39 q 303 19 283 -19 l 322 61 l -31 760 l 333 760 l 501 369 l 669 760 l 1033 760 l 607 -124 q 550 -212 578 -183 q 469 -256 522 -240 q 324 -272 415 -272 q 88 -260 231 -272 m 290 835 l 417 1035 l 838 1035 l 625 835 l 290 835 z "},"þ":{"ha":1208,"x_min":83,"x_max":1167,"o":"m 83 -272 l 83 1026 l 431 1026 l 431 674 l 433 674 q 735 781 522 781 q 897 756 821 781 q 1035 684 974 732 q 1131 557 1096 636 q 1167 375 1167 478 q 1131 193 1167 272 q 1035 66 1096 114 q 897 -6 974 18 q 735 -31 821 -31 q 433 76 522 -31 l 431 76 l 431 -272 l 83 -272 m 621 547 q 431 375 431 547 q 622 203 431 203 q 762 251 713 203 q 811 375 811 299 q 765 501 811 454 q 621 547 718 547 z "},"ÿ":{"ha":1003,"x_min":-31,"x_max":1033,"o":"m 88 -260 l 88 -35 q 174 -39 129 -39 q 258 -29 233 -39 q 303 19 283 -19 l 322 61 l -31 760 l 333 760 l 501 369 l 669 760 l 1033 760 l 607 -124 q 550 -212 578 -183 q 469 -256 522 -240 q 324 -272 415 -272 q 88 -260 231 -272 m 111 843 l 111 1026 l 447 1026 l 447 843 l 111 843 m 556 843 l 556 1026 l 892 1026 l 892 843 l 556 843 z "},"ı":{"ha":514,"x_min":83,"x_max":431,"o":"m 83 0 l 83 760 l 431 760 l 431 0 l 83 0 z "},"Ł":{"ha":1106,"x_min":1,"x_max":1094,"o":"m 96 0 l 96 265 l 1 208 l 1 433 l 96 490 l 96 992 l 488 992 l 488 707 l 719 844 l 719 619 l 488 482 l 488 267 l 1094 267 l 1094 0 l 96 0 z "},"ł":{"ha":514,"x_min":0,"x_max":514,"o":"m 83 0 l 83 318 l 0 267 l 0 475 l 83 526 l 83 1026 l 431 1026 l 431 731 l 514 782 l 514 574 l 431 522 l 431 0 l 83 0 z "},"Œ":{"ha":1619,"x_min":43,"x_max":1586,"o":"m 785 388 l 785 608 q 736 732 785 688 q 624 776 688 776 q 476 702 518 776 q 435 492 435 628 q 476 288 435 361 q 624 215 518 215 q 736 260 688 215 q 785 388 785 306 m 786 0 l 786 57 q 515 -35 685 -35 q 334 -6 417 -35 q 185 85 251 24 q 81 251 118 146 q 43 496 43 356 q 81 741 43 636 q 185 907 118 846 q 334 997 251 968 q 515 1026 417 1026 q 785 932 699 1026 l 785 992 l 1579 992 l 1579 750 l 1121 750 l 1121 617 l 1561 617 l 1561 375 l 1121 375 l 1121 242 l 1586 242 l 1586 0 l 786 0 z "},"œ":{"ha":1619,"x_min":42,"x_max":1578,"o":"m 950 460 l 1265 460 q 1215 560 1260 521 q 1108 599 1169 599 q 1001 560 1046 599 q 950 460 956 521 m 1578 301 l 950 301 q 1113 161 964 161 q 1197 176 1171 161 q 1246 228 1224 190 l 1575 228 q 1129 -31 1489 -31 q 819 72 921 -31 q 508 -31 708 -31 q 167 72 293 -31 q 42 379 42 174 q 82 581 42 497 q 192 709 122 665 q 340 772 263 753 q 508 790 417 790 q 819 703 699 790 q 1110 790 924 790 q 1453 681 1328 790 q 1578 350 1578 571 l 1578 301 m 378 369 q 536 186 378 186 q 692 389 692 186 q 650 526 692 478 q 536 574 608 574 q 378 369 378 574 z "},"Š":{"ha":1336,"x_min":33,"x_max":1303,"o":"m 765 354 l 318 421 q 114 516 181 442 q 47 700 47 590 q 90 859 47 793 q 215 960 133 925 q 394 1011 296 996 q 621 1026 493 1026 q 1096 945 944 1026 q 1258 701 1247 864 l 803 701 q 743 781 803 757 q 621 801 696 801 q 464 731 464 801 q 515 679 464 686 l 983 610 q 1303 321 1303 563 q 1149 52 1303 139 q 665 -35 994 -35 q 483 -28 564 -35 q 314 -1 401 -22 q 168 55 226 19 q 72 152 110 90 q 33 299 33 214 l 506 299 q 547 228 507 250 q 681 207 590 207 q 836 288 836 207 q 765 354 836 343 m 419 1067 l 204 1267 l 592 1267 l 686 1161 l 781 1267 l 1132 1267 l 917 1067 l 419 1067 z "},"š":{"ha":1132,"x_min":33,"x_max":1099,"o":"m 651 267 l 313 301 q 110 374 168 317 q 53 535 53 431 q 177 729 53 668 q 558 790 301 790 q 1061 532 1053 790 l 669 532 q 643 579 669 564 q 540 599 608 599 q 442 585 468 599 q 417 546 417 571 q 510 499 417 507 l 840 469 q 1038 399 976 457 q 1099 240 1099 342 q 970 33 1099 96 q 563 -31 842 -31 q 166 31 290 -31 q 33 236 42 93 l 442 236 q 485 175 447 193 q 583 161 515 161 q 699 219 699 161 q 651 267 699 261 m 318 835 l 103 1035 l 490 1035 l 585 929 l 679 1035 l 1031 1035 l 815 835 l 318 835 z "},"Ÿ":{"ha":1156,"x_min":-58,"x_max":1214,"o":"m 382 0 l 382 279 l -58 992 l 389 992 l 578 603 l 767 992 l 1214 992 l 774 279 l 774 0 l 382 0 m 188 1075 l 188 1258 l 524 1258 l 524 1075 l 188 1075 m 632 1075 l 632 1258 l 968 1258 l 968 1075 l 632 1075 z "},"Ž":{"ha":1183,"x_min":31,"x_max":1153,"o":"m 31 0 l 31 210 l 625 742 l 71 742 l 71 992 l 1153 992 l 1153 775 l 572 250 l 1138 250 l 1138 0 l 31 0 m 343 1067 l 128 1267 l 515 1267 l 610 1161 l 704 1267 l 1056 1267 l 840 1067 l 343 1067 z "},"ž":{"ha":978,"x_min":25,"x_max":953,"o":"m 35 0 l 35 192 l 464 524 l 464 526 l 60 526 l 60 760 l 931 760 l 931 560 l 524 244 l 524 242 l 943 242 l 943 0 l 35 0 m 240 835 l 25 1035 l 413 1035 l 507 929 l 601 1035 l 953 1035 l 738 835 l 240 835 z "},"ƒ":{"ha":833,"x_min":-64,"x_max":842,"o":"m 75 404 l 110 579 l 261 579 l 310 811 q 356 909 322 871 q 443 964 390 947 q 544 986 496 981 q 660 992 592 992 q 842 979 733 992 l 803 779 l 736 783 q 673 767 693 783 q 642 700 653 751 l 617 579 l 760 579 l 724 404 l 581 404 l 490 -31 q 389 -221 461 -169 q 139 -272 317 -272 q -64 -264 107 -272 l -22 -60 q 36 -64 1 -64 q 111 -47 90 -64 q 146 32 132 -29 l 225 404 l 75 404 z "},"ˆ":{"ha":386,"x_min":-271,"x_max":657,"o":"m -271 835 l -56 1035 l 442 1035 l 657 835 l 269 835 l 175 940 l 81 835 l -271 835 z "},"ˇ":{"ha":386,"x_min":-271,"x_max":657,"o":"m -56 835 l -271 1035 l 117 1035 l 211 929 l 306 1035 l 657 1035 l 442 835 l -56 835 z "},"ˉ":{"ha":386,"x_min":-203,"x_max":589,"o":"m -203 843 l -203 1026 l 589 1026 l 589 843 l -203 843 z "},"˘":{"ha":386,"x_min":-142,"x_max":528,"o":"m 344 1035 l 528 1035 q 415 858 504 908 q 193 817 342 817 q -35 863 47 817 q -142 1035 -117 908 l 42 1035 q 93 985 51 997 q 193 975 124 975 q 344 1035 324 975 z "},"˙":{"ha":386,"x_min":25,"x_max":361,"o":"m 25 843 l 25 1026 l 361 1026 l 361 843 l 25 843 z "},"˚":{"ha":386,"x_min":1,"x_max":385,"o":"m 58 887 q 30 915 58 887 q 1 1022 1 943 q 58 1158 1 1101 q 193 1214 114 1214 q 328 1158 272 1214 q 385 1022 385 1101 q 328 887 385 943 q 193 831 272 831 q 58 887 114 831 m 134 1081 q 122 1069 134 1081 q 110 1022 110 1057 q 134 963 110 988 q 193 939 158 939 q 252 963 228 939 q 276 1022 276 988 q 252 1081 276 1057 q 193 1106 228 1106 q 134 1081 158 1106 z "},"˛":{"ha":386,"x_min":322,"x_max":714,"o":"m 531 28 l 686 28 q 581 -47 615 -17 q 547 -112 547 -78 q 569 -156 547 -140 q 625 -172 590 -172 q 707 -157 667 -172 l 714 -229 q 500 -256 586 -256 q 322 -140 322 -256 q 378 -40 322 -85 q 531 28 435 6 z "},"˜":{"ha":386,"x_min":-212,"x_max":599,"o":"m 451 1035 l 599 1035 q 519 871 575 924 q 389 818 464 818 q 185 851 351 818 q -8 885 19 885 q -64 844 -44 885 l -212 844 q 14 1060 -153 1060 q 211 1026 44 1060 q 392 993 375 993 q 451 1035 435 993 z "},"˝":{"ha":386,"x_min":-331,"x_max":717,"o":"m -331 835 l -204 1035 l 217 1035 l 4 835 l -331 835 m 169 835 l 296 1035 l 717 1035 l 504 835 l 169 835 z "},"Ω":{"ha":1307,"x_min":58,"x_max":1246,"o":"m 289 219 l 289 225 q 140 359 204 272 q 76 565 76 446 q 233 869 76 747 q 654 992 390 992 q 1072 871 917 992 q 1228 561 1228 750 q 1172 368 1228 444 q 1010 225 1115 292 l 1010 219 l 1246 219 l 1246 0 l 693 0 l 693 172 q 858 318 804 244 q 911 506 911 392 q 840 699 911 622 q 657 776 769 776 q 471 703 546 776 q 396 501 396 629 q 454 308 396 396 q 615 172 513 221 l 615 0 l 58 0 l 58 219 l 289 219 z "},"μ":{"ha":1156,"x_min":83,"x_max":1072,"o":"m 1072 760 l 1072 0 l 736 0 l 736 85 l 733 85 q 649 0 699 31 q 550 -31 599 -31 q 433 25 479 -31 l 431 25 l 431 -272 l 83 -272 l 83 760 l 431 760 l 431 357 q 564 219 431 219 q 685 267 644 219 q 725 401 725 314 l 725 760 l 1072 760 z "},"π":{"ha":1107,"x_min":-1,"x_max":1089,"o":"m 1063 515 l 963 515 l 963 257 q 981 0 963 81 l 671 0 q 643 232 643 31 l 643 515 l 488 515 q 464 221 488 378 q 406 0 440 64 l 96 0 q 156 259 131 107 q 176 515 181 411 q 25 504 71 515 l -1 679 q 318 738 49 738 l 1089 738 l 1063 515 z "},"–":{"ha":694,"x_min":0,"x_max":694,"o":"m 0 296 l 0 521 l 694 521 l 694 296 l 0 296 z "},"—":{"ha":1389,"x_min":0,"x_max":1389,"o":"m 0 296 l 0 521 l 1389 521 l 1389 296 l 0 296 z "},"‘":{"ha":567,"x_min":101,"x_max":465,"o":"m 101 397 l 101 633 q 128 776 101 713 q 194 878 154 840 q 286 943 235 917 q 381 980 338 969 q 465 992 425 990 l 465 867 q 301 708 310 849 l 465 708 l 465 397 l 101 397 z "},"’":{"ha":567,"x_min":101,"x_max":465,"o":"m 101 681 l 101 992 l 465 992 l 465 756 q 439 613 465 676 q 372 510 413 549 q 281 446 332 472 q 185 409 229 419 q 101 397 142 399 l 101 522 q 265 681 257 540 l 101 681 z "},"‚":{"ha":567,"x_min":101,"x_max":465,"o":"m 101 0 l 101 311 l 465 311 l 465 75 q 439 -68 465 -4 q 372 -170 413 -132 q 281 -235 332 -208 q 185 -272 229 -261 q 101 -283 142 -282 l 101 -158 q 265 0 257 -140 l 101 0 z "},"“":{"ha":1003,"x_min":72,"x_max":931,"o":"m 567 397 l 567 633 q 593 776 567 713 q 660 878 619 840 q 751 943 700 917 q 847 980 803 969 q 931 992 890 990 l 931 867 q 767 708 775 849 l 931 708 l 931 397 l 567 397 m 72 397 l 72 633 q 99 776 72 713 q 165 878 125 840 q 257 943 206 917 q 352 980 308 969 q 436 992 396 990 l 436 867 q 272 708 281 849 l 436 708 l 436 397 l 72 397 z "},"”":{"ha":1003,"x_min":72,"x_max":931,"o":"m 72 681 l 72 992 l 436 992 l 436 756 q 410 613 436 676 q 343 510 383 549 q 251 446 303 472 q 156 409 200 419 q 72 397 113 399 l 72 522 q 236 681 228 540 l 72 681 m 567 681 l 567 992 l 931 992 l 931 756 q 904 613 931 676 q 838 510 878 549 q 746 446 797 472 q 651 409 694 419 q 567 397 607 399 l 567 522 q 731 681 722 540 l 567 681 z "},"„":{"ha":1003,"x_min":72,"x_max":931,"o":"m 72 0 l 72 311 l 436 311 l 436 75 q 410 -68 436 -4 q 343 -170 383 -132 q 251 -235 303 -208 q 156 -272 200 -261 q 72 -283 113 -282 l 72 -158 q 236 0 228 -140 l 72 0 m 567 0 l 567 311 l 931 311 l 931 75 q 904 -68 931 -4 q 838 -170 878 -132 q 746 -235 797 -208 q 651 -272 694 -261 q 567 -283 607 -282 l 567 -158 q 731 0 722 -140 l 567 0 z "},"†":{"ha":1339,"x_min":143,"x_max":1196,"o":"m 143 472 l 143 714 l 488 714 l 488 992 l 851 992 l 851 714 l 1196 714 l 1196 472 l 851 472 l 851 -272 l 488 -272 l 488 472 l 143 472 z "},"‡":{"ha":1339,"x_min":143,"x_max":1196,"o":"m 143 -17 l 143 200 l 496 200 l 496 519 l 143 519 l 143 736 l 496 736 l 496 992 l 843 992 l 843 736 l 1196 736 l 1196 519 l 843 519 l 843 200 l 1196 200 l 1196 -17 l 843 -17 l 843 -272 l 496 -272 l 496 -17 l 143 -17 z "},"•":{"ha":694,"x_min":100,"x_max":594,"o":"m 172 322 q 136 358 172 322 q 100 496 100 394 q 172 670 100 597 q 347 743 244 743 q 522 670 450 743 q 594 496 594 597 q 522 322 594 394 q 347 249 450 249 q 172 322 244 249 z "},"…":{"ha":1389,"x_min":50,"x_max":1339,"o":"m 50 0 l 50 311 l 414 311 l 414 0 l 50 0 m 513 0 l 513 311 l 876 311 l 876 0 l 513 0 m 975 0 l 975 311 l 1339 311 l 1339 0 l 975 0 z "},"‰":{"ha":1619,"x_min":1,"x_max":1618,"o":"m 176 747 q 188 640 176 668 q 235 611 200 611 q 282 640 271 611 q 293 747 293 668 q 282 855 293 826 q 235 883 271 883 q 188 854 200 883 q 176 747 176 825 m 129 -28 l 779 992 l 957 992 l 307 -28 l 129 -28 m 793 217 q 805 109 793 138 q 851 81 817 81 q 899 109 888 81 q 910 217 910 138 q 899 324 910 296 q 851 353 888 353 q 805 324 817 353 q 793 217 793 294 m 235 503 q 118 503 235 503 q 1 747 1 503 q 235 992 1 992 q 468 747 468 992 q 235 503 468 503 m 851 -28 q 735 -28 851 -28 q 618 217 618 -28 q 851 461 618 461 q 1085 217 1085 461 q 851 -28 1085 -28 m 1385 -28 q 1268 -28 1385 -28 q 1151 217 1151 -28 q 1385 461 1151 461 q 1618 217 1618 461 q 1385 -28 1618 -28 m 1326 217 q 1338 109 1326 138 q 1385 81 1350 81 q 1432 109 1421 81 q 1443 217 1443 138 q 1432 324 1443 296 q 1385 353 1421 353 q 1338 324 1350 353 q 1326 217 1326 294 z "},"‹":{"ha":567,"x_min":122,"x_max":422,"o":"m 122 271 l 122 546 l 422 769 l 422 536 l 249 408 l 422 281 l 422 47 l 122 271 z "},"›":{"ha":567,"x_min":144,"x_max":444,"o":"m 144 47 l 144 281 l 318 408 l 144 536 l 144 769 l 444 546 l 444 271 l 144 47 z "},"⁄":{"ha":231,"x_min":-299,"x_max":529,"o":"m -299 -28 l 351 992 l 529 992 l -121 -28 l -299 -28 z "},"€":{"ha":1339,"x_min":92,"x_max":1281,"o":"m 1281 899 l 1126 672 q 850 761 963 761 q 633 619 699 761 l 1099 619 l 1025 501 l 610 501 l 610 481 l 610 458 l 1003 458 l 931 340 l 631 340 q 858 190 682 190 q 1027 219 950 190 q 1203 304 1104 247 l 1201 18 q 821 -33 1003 -33 q 660 -24 733 -33 q 512 11 586 -14 q 382 77 438 36 q 284 185 326 118 q 225 340 242 251 l 92 340 l 164 458 l 214 458 q 213 501 213 464 l 92 501 l 164 619 l 225 619 q 840 983 297 983 q 1281 899 1068 983 z "},"ℓ":{"ha":1003,"x_min":44,"x_max":961,"o":"m 832 333 l 961 203 q 769 32 885 85 q 526 -21 653 -21 q 319 23 397 -21 q 200 172 240 67 q 198 177 199 174 q 197 182 197 181 q 174 169 186 176 q 151 155 161 161 q 129 143 140 149 l 44 286 q 190 374 111 329 l 190 626 q 542 1061 190 1061 q 767 983 689 1061 q 844 792 844 906 q 760 557 844 664 q 488 314 675 450 l 492 300 q 528 240 499 264 q 606 217 557 217 q 832 333 728 217 m 488 724 l 488 554 q 583 674 549 610 q 618 792 618 739 q 561 875 618 875 q 488 724 488 875 z "},"™":{"ha":1389,"x_min":-1,"x_max":1335,"o":"m 154 419 l 154 842 l -1 842 l -1 992 l 510 992 l 510 842 l 354 842 l 354 419 l 154 419 m 1151 419 l 1151 792 l 1149 792 l 1035 419 l 893 419 l 779 792 l 776 792 l 776 419 l 593 419 l 593 992 l 860 992 l 963 661 l 965 661 l 1068 992 l 1335 992 l 1335 419 l 1151 419 z "},"Ω":{"ha":1307,"x_min":58,"x_max":1246,"o":"m 289 219 l 289 225 q 140 359 204 272 q 76 565 76 446 q 233 869 76 747 q 654 992 390 992 q 1072 871 917 992 q 1228 561 1228 750 q 1172 368 1228 444 q 1010 225 1115 292 l 1010 219 l 1246 219 l 1246 0 l 693 0 l 693 172 q 858 318 804 244 q 911 506 911 392 q 840 699 911 622 q 657 776 769 776 q 471 703 546 776 q 396 501 396 629 q 454 308 396 396 q 615 172 513 221 l 615 0 l 58 0 l 58 219 l 289 219 z "},"℮":{"ha":1222,"x_min":47,"x_max":1174,"o":"m 1174 468 l 261 468 q 254 461 254 468 l 254 186 q 267 154 254 169 q 611 4 410 4 q 812 49 718 4 q 974 172 906 94 l 1056 172 q 860 29 978 82 q 610 -24 743 -24 q 212 124 376 -24 q 47 482 47 272 q 212 840 47 692 q 610 989 376 989 q 1009 840 844 989 q 1174 482 1174 692 l 1174 468 m 967 504 l 967 781 q 953 814 967 801 q 611 958 808 958 q 268 810 414 958 q 254 775 254 797 l 254 504 q 261 494 254 494 l 961 494 q 967 504 967 494 z "},"∂":{"ha":1039,"x_min":38,"x_max":985,"o":"m 160 813 l 71 1000 q 440 1094 231 1094 q 833 940 681 1094 q 985 543 985 786 q 830 129 985 279 q 440 -21 675 -21 q 260 13 340 -21 q 133 101 179 47 q 62 212 86 154 q 38 325 38 269 q 142 588 38 479 q 424 696 246 696 q 582 658 518 696 q 679 576 646 621 l 681 576 l 681 592 q 608 788 681 706 q 400 871 536 871 q 160 813 281 871 m 475 197 l 476 197 q 591 251 542 197 q 650 374 640 306 q 602 447 643 411 q 503 483 561 483 q 389 439 432 483 q 346 325 346 394 q 383 232 346 267 q 475 197 421 197 z "},"∆":{"ha":1169,"x_min":29,"x_max":1139,"o":"m 29 0 l 29 136 l 397 996 l 776 996 l 1139 136 l 1139 0 l 29 0 m 371 222 l 772 222 l 632 599 q 569 779 589 714 l 563 779 q 507 608 515 632 l 371 222 z "},"∏":{"ha":1251,"x_min":22,"x_max":1228,"o":"m 1228 735 l 1057 735 l 1057 -135 l 758 -135 l 758 735 l 492 735 l 492 -135 l 193 -135 l 193 735 l 22 735 l 22 974 l 1228 974 l 1228 735 z "},"∑":{"ha":996,"x_min":29,"x_max":978,"o":"m 978 -135 l 29 -135 l 29 18 l 399 410 l 51 790 l 51 974 l 935 974 l 935 735 l 478 735 l 478 729 l 747 438 l 447 111 l 447 104 l 978 104 l 978 -135 z "},"−":{"ha":833,"x_min":65,"x_max":768,"o":"m 65 251 l 65 451 l 768 451 l 768 251 l 65 251 z "},"∕":{"ha":231,"x_min":-299,"x_max":529,"o":"m -299 -28 l 351 992 l 529 992 l -121 -28 l -299 -28 z "},"∙":{"ha":567,"x_min":101,"x_max":465,"o":"m 155 210 q 128 237 155 210 q 101 339 101 264 q 155 467 101 414 q 283 521 208 521 q 412 467 358 521 q 465 339 465 414 q 412 210 465 264 q 283 157 358 157 q 155 210 208 157 z "},"√":{"ha":1060,"x_min":35,"x_max":1114,"o":"m 1114 1164 l 700 -215 l 469 -215 l 201 378 l 83 328 l 35 461 l 376 603 l 543 175 q 588 51 571 103 l 590 51 q 606 112 594 68 q 624 182 617 156 l 899 1164 l 1114 1164 z "},"∞":{"ha":1171,"x_min":61,"x_max":1107,"o":"m 1107 407 l 1107 406 q 1030 203 1107 279 q 849 128 953 128 q 581 285 688 128 q 458 167 519 207 q 315 128 397 128 q 136 201 211 128 q 61 396 61 275 q 138 593 61 517 q 329 669 214 669 q 476 633 414 669 q 596 519 539 597 q 612 538 597 521 q 631 561 626 556 q 652 583 636 567 q 678 606 668 599 q 705 626 688 613 q 737 644 722 639 q 771 658 751 650 q 812 667 790 665 q 856 669 833 669 q 1033 597 960 668 q 1107 407 1107 525 m 329 269 l 332 269 q 504 389 414 269 q 465 447 478 429 q 430 488 453 464 q 383 520 407 511 q 328 529 358 529 q 243 494 278 529 q 208 397 208 460 q 244 308 208 346 q 329 269 279 269 m 840 529 l 839 529 q 788 519 813 529 q 739 484 764 508 q 703 446 714 460 q 667 400 692 432 q 763 295 724 321 q 849 269 803 269 q 928 309 899 269 q 958 394 958 349 q 926 491 958 453 q 840 529 894 529 z "},"∫":{"ha":643,"x_min":7,"x_max":640,"o":"m 640 1204 l 615 1033 q 553 1040 583 1040 q 464 996 492 1040 q 433 782 433 949 q 447 476 433 669 q 461 147 461 283 q 408 -124 461 -31 q 157 -260 332 -260 q 7 -236 61 -260 l 38 -57 q 110 -68 68 -68 q 190 -36 163 -68 q 229 153 229 13 q 215 492 229 292 q 200 813 200 692 q 226 1014 200 936 q 311 1149 253 1092 q 533 1221 385 1221 q 640 1204 601 1221 z "},"≈":{"ha":903,"x_min":33,"x_max":860,"o":"m 757 686 l 860 578 q 738 462 803 500 q 613 424 672 424 q 526 437 563 424 q 432 481 489 450 q 303 524 351 524 q 135 424 219 524 l 33 532 q 151 639 74 593 q 303 685 228 685 q 467 639 397 685 q 544 596 519 606 q 601 586 568 586 q 757 686 676 586 m 757 386 l 860 278 q 610 124 746 124 q 432 179 533 124 q 304 222 351 222 q 135 124 221 222 l 33 232 q 151 339 74 293 q 304 385 229 385 q 465 340 389 385 q 490 325 474 336 q 516 309 507 314 q 540 297 525 304 q 569 288 554 290 q 599 285 583 285 q 677 309 642 285 q 757 386 713 333 z "},"≠":{"ha":903,"x_min":74,"x_max":831,"o":"m 686 739 l 638 635 l 831 635 l 831 479 l 568 479 l 492 314 l 831 314 l 831 158 l 421 158 l 344 -10 l 217 50 l 267 158 l 74 158 l 74 314 l 336 314 l 413 479 l 74 479 l 74 635 l 482 635 l 558 799 l 686 739 z "},"≤":{"ha":903,"x_min":74,"x_max":831,"o":"m 831 207 l 74 519 l 74 686 l 829 997 l 829 829 l 246 604 l 246 601 l 831 376 l 831 207 m 831 0 l 74 0 l 74 160 l 831 160 l 831 0 z "},"≥":{"ha":903,"x_min":74,"x_max":831,"o":"m 74 997 l 831 685 l 831 518 l 75 207 l 75 376 l 658 601 l 658 604 l 74 829 l 74 997 m 821 0 l 75 0 l 75 160 l 821 160 l 821 0 z "},"◊":{"ha":1060,"x_min":65,"x_max":993,"o":"m 993 485 l 642 -62 l 414 -62 l 65 485 l 414 1035 l 642 1035 l 993 485 m 735 479 l 554 785 q 526 835 532 819 l 524 835 q 496 785 514 814 l 324 490 l 504 183 q 529 136 526 143 l 533 136 q 547 159 538 142 q 560 183 556 176 l 735 479 z "},"ﬁ":{"ha":1233,"x_min":13,"x_max":1150,"o":"m 803 0 l 803 760 l 1150 760 l 1150 0 l 803 0 m 803 835 l 803 1026 l 1150 1026 l 1150 835 l 803 835 m 174 0 l 174 543 l 13 543 l 13 760 l 174 760 l 174 840 q 243 990 174 946 q 481 1035 313 1035 q 708 1026 622 1035 l 708 843 l 604 843 q 539 828 557 843 q 521 782 521 814 l 521 760 l 708 760 l 708 543 l 521 543 l 521 0 l 174 0 z "},"ﬂ":{"ha":1233,"x_min":13,"x_max":1150,"o":"m 174 0 l 174 543 l 13 543 l 13 760 l 174 760 l 174 840 q 243 990 174 946 q 481 1035 313 1035 q 708 1026 622 1035 l 708 843 l 604 843 q 539 828 557 843 q 521 782 521 814 l 521 760 l 708 760 l 708 543 l 521 543 l 521 0 l 174 0 m 803 0 l 803 1026 l 1150 1026 l 1150 0 l 803 0 z "}}}
